<?xml version="1.0" encoding="UTF-8"?>
<svg width="90px" height="90px" viewBox="0 0 90 90" version="1.1" xmlns="http://www.w3.org/2000/svg" xmlns:xlink="http://www.w3.org/1999/xlink">
    <!-- Generator: Sketch 54.1 (76490) - https://sketchapp.com -->
    <title>2cr</title>
    <desc>Created with Sketch.</desc>
    <defs>
        <path d="M27.6445313,14.9 L0.35546875,14.9 C0.1640625,14.9 0,14.7 0,14.4 L0,0.9 C0,0.6 0.1640625,0.4 0.35546875,0.4 L27.6445313,0.4 C27.8359375,0.4 28,0.6 28,0.9 L28,14.4 C28,14.7 27.8359375,14.9 27.6445313,14.9 Z" id="path-1"></path>
    </defs>
    <g id="WP-Customizer" stroke="none" stroke-width="1" fill="none" fill-rule="evenodd">
        <g id="Layout" transform="translate(-524.000000, -128.000000)">
            <g id="2cr" transform="translate(524.000000, 128.000000)">
                <rect id="Rectangle" fill="#FFFFFF" x="0" y="0" width="90" height="90"></rect>
                <g id="Content" transform="translate(6.000000, 6.000000)">
                    <rect id="Rectangle" fill="#BFBFBF" fill-rule="nonzero" x="0" y="51.8" width="56" height="2"></rect>
                    <rect id="Rectangle-Copy-33" fill="#BFBFBF" fill-rule="nonzero" x="0" y="48" width="56" height="2"></rect>
                    <rect id="Rectangle-Copy-34" fill="#BFBFBF" fill-rule="nonzero" x="0" y="44" width="56" height="2"></rect>
                    <rect id="Rectangle-Copy-35" fill="#BFBFBF" fill-rule="nonzero" x="0" y="40" width="56" height="2"></rect>
                    <rect id="Rectangle-Copy-36" fill="#BFBFBF" fill-rule="nonzero" x="0" y="36" width="56" height="2"></rect>
                    <rect id="Rectangle-Copy-37" fill="#BFBFBF" fill-rule="nonzero" x="31" y="32" width="25" height="2"></rect>
                    <rect id="Rectangle-Copy-38" fill="#BFBFBF" fill-rule="nonzero" x="31" y="28" width="25" height="2"></rect>
                    <rect id="Rectangle-Copy-39" fill="#BFBFBF" fill-rule="nonzero" x="31" y="24" width="25" height="2"></rect>
                    <rect id="Rectangle-Copy-40" fill="#BFBFBF" fill-rule="nonzero" x="31" y="20" width="25" height="2"></rect>
                    <rect id="Rectangle" fill="#BFBFBF" fill-rule="nonzero" x="0" y="55.8" width="56" height="2"></rect>
                    <rect id="Rectangle" fill="#BFBFBF" fill-rule="nonzero" x="0" y="59.8" width="56" height="2"></rect>
                    <rect id="Rectangle" fill="#BFBFBF" fill-rule="nonzero" x="0" y="63.8" width="56" height="2"></rect>
                    <rect id="Rectangle" fill="#BFBFBF" fill-rule="nonzero" x="0" y="67.8" width="56" height="2"></rect>
                    <rect id="Rectangle" fill="#BFBFBF" fill-rule="nonzero" x="0" y="71.8" width="56" height="2"></rect>
                    <rect id="Rectangle" fill="#BFBFBF" fill-rule="nonzero" x="0" y="75.8" width="37" height="2"></rect>
                    <g id="Group" fill="#989898" fill-rule="nonzero">
                        <rect id="Rectangle" x="0" y="0" width="56" height="4"></rect>
                        <rect id="Rectangle" x="0" y="6" width="25" height="4"></rect>
                    </g>
                    <g id="Group" transform="translate(0.000000, 18.000000)">
                        <mask id="mask-2" fill="white">
                            <use xlink:href="#path-1"></use>
                        </mask>
                        <use id="Path" fill="#9B9B9B" fill-rule="nonzero" xlink:href="#path-1"></use>
                        <path d="M16.8,9.85 L13.35,7.15 L0,13.1 L0,14.4 C0,14.7 0.3,14.9 0.65,14.9 L31.35,14.9 C31.7,14.9 32,14.7 32,14.4 L32,2.55 L16.8,9.85 Z" id="Path" fill="#4A4A4A" fill-rule="nonzero" mask="url(#mask-2)"></path>
                        <circle id="Oval" fill="#F8F8F8" fill-rule="nonzero" mask="url(#mask-2)" cx="4.25" cy="4.4" r="1.5"></circle>
                    </g>
                    <g id="Group" transform="translate(0.000000, 12.000000)" fill="#989898" fill-rule="nonzero">
                        <rect id="Rectangle" x="0" y="0" width="12" height="2"></rect>
                        <rect id="Rectangle" x="15" y="0" width="12" height="2"></rect>
                        <rect id="Rectangle" x="29" y="0" width="12" height="2"></rect>
                        <rect id="Rectangle" x="44" y="0" width="12" height="2"></rect>
                    </g>
                </g>
                <polygon id="Rectangle-Copy-52" fill="#BFBFBF" points="71 6 85 6 85 84 71 84"></polygon>
            </g>
        </g>
    </g>
</svg>