<?xml version="1.0" encoding="UTF-8"?>
<svg width="90px" height="90px" viewBox="0 0 90 90" version="1.1" xmlns="http://www.w3.org/2000/svg" xmlns:xlink="http://www.w3.org/1999/xlink">
    <!-- Generator: Sketch 54.1 (76490) - https://sketchapp.com -->
    <title>3cl</title>
    <desc>Created with Sketch.</desc>
    <g id="WP-Customizer" stroke="none" stroke-width="1" fill="none" fill-rule="evenodd">
        <g id="Layout" transform="translate(-304.000000, -128.000000)">
            <g id="3cl" transform="translate(304.000000, 128.000000)">
                <rect id="Rectangle" fill="#FFFFFF" x="0" y="0" width="90" height="90"></rect>
                <g id="Content" transform="translate(49.000000, 6.000000)" fill-rule="nonzero">
                    <rect id="Rectangle" fill="#BFBFBF" x="0" y="51.8" width="35" height="2"></rect>
                    <rect id="Rectangle-Copy-9" fill="#BFBFBF" x="0" y="48" width="35" height="2"></rect>
                    <rect id="Rectangle-Copy-10" fill="#BFBFBF" x="0" y="44" width="35" height="2"></rect>
                    <rect id="Rectangle-Copy-11" fill="#BFBFBF" x="0" y="40" width="35" height="2"></rect>
                    <rect id="Rectangle-Copy-12" fill="#BFBFBF" x="0" y="36" width="35" height="2"></rect>
                    <rect id="Rectangle-Copy-13" fill="#BFBFBF" x="21" y="32" width="14" height="2"></rect>
                    <rect id="Rectangle-Copy-14" fill="#BFBFBF" x="21" y="28" width="14" height="2"></rect>
                    <rect id="Rectangle-Copy-15" fill="#BFBFBF" x="21" y="24" width="14" height="2"></rect>
                    <rect id="Rectangle-Copy-16" fill="#BFBFBF" x="21" y="20" width="14" height="2"></rect>
                    <rect id="Rectangle" fill="#BFBFBF" x="0" y="55.8" width="35" height="2"></rect>
                    <rect id="Rectangle" fill="#BFBFBF" x="0" y="59.8" width="35" height="2"></rect>
                    <rect id="Rectangle" fill="#BFBFBF" x="0" y="63.8" width="35" height="2"></rect>
                    <rect id="Rectangle" fill="#BFBFBF" x="0" y="67.8" width="35" height="2"></rect>
                    <rect id="Rectangle" fill="#BFBFBF" x="0" y="71.8" width="35" height="2"></rect>
                    <rect id="Rectangle" fill="#BFBFBF" x="0" y="75.8" width="23" height="2"></rect>
                    <g id="Group" fill="#989898">
                        <rect id="Rectangle" x="0" y="0" width="34" height="4"></rect>
                        <rect id="Rectangle" x="0" y="6" width="15" height="4"></rect>
                    </g>
                    <g id="Group" transform="translate(0.000000, 18.000000)">
                        <path d="M17.634375,14.9 L0.365625,14.9 C0.16875,14.9 0,14.7 0,14.4 L0,0.9 C0,0.6 0.16875,0.4 0.365625,0.4 L17.634375,0.4 C17.83125,0.4 18,0.6 18,0.9 L18,14.4 C18,14.7 17.83125,14.9 17.634375,14.9 Z" id="Path" fill="#9B9B9B"></path>
                        <path d="M18,9.51381579 L18,14.9 L0.668571429,14.9 C0.308571429,14.9 0,14.7 0,14.4 L0,13.1 L13.7314286,7.15 L17.28,9.85 L18,9.51381579 Z" id="Combined-Shape" fill="#4A4A4A"></path>
                        <ellipse id="Oval" fill="#F8F8F8" cx="4.37142857" cy="4.4" rx="1.54285714" ry="1.5"></ellipse>
                    </g>
                    <g id="Group" transform="translate(0.000000, 12.000000)" fill="#989898">
                        <rect id="Rectangle" x="0" y="0" width="7" height="2"></rect>
                        <rect id="Rectangle" x="9" y="0" width="7" height="2"></rect>
                        <rect id="Rectangle" x="18" y="0" width="7" height="2"></rect>
                        <rect id="Rectangle" x="27" y="0" width="7" height="2"></rect>
                    </g>
                </g>
                <polygon id="Rectangle-Copy-52" fill="#BFBFBF" points="5 6 17 6 17 84 5 84"></polygon>
                <polygon id="Rectangle-Copy-53" fill="#BFBFBF" points="26 6 40 6 40 84 26 84"></polygon>
            </g>
        </g>
    </g>
</svg>