<?xml version="1.0" encoding="UTF-8"?>
<svg width="90px" height="90px" viewBox="0 0 90 90" version="1.1" xmlns="http://www.w3.org/2000/svg" xmlns:xlink="http://www.w3.org/1999/xlink">
    <!-- Generator: Sketch 54.1 (76490) - https://sketchapp.com -->
    <title>bg-contain</title>
    <desc>Created with Sketch.</desc>
    <g id="WP-Customizer" stroke="none" stroke-width="1" fill="none" fill-rule="evenodd">
        <g id="Background-type" transform="translate(-84.000000, -124.000000)">
            <g id="bg-contain" transform="translate(84.000000, 124.000000)">
                <path d="M86.1,90 L3.9,90 C1.7,90 0,88.3 0,86.1 L0,3.9 C0,1.7 1.7,0 3.9,0 L86.2,0 C88.3,0 90,1.7 90,3.9 L90,86.2 C90,88.3 88.3,90 86.1,90 Z" id="Path" fill="#FFFFFF" fill-rule="nonzero"></path>
                <g id="Image" transform="translate(13.000000, 26.000000)" fill-rule="nonzero">
                    <path d="M62.7,39 L1.3,39 C0.6,39 0,38.462069 0,37.6551724 L0,1.34482759 C0,0.537931034 0.6,0 1.3,0 L62.7,0 C63.4,0 64,0.537931034 64,1.34482759 L64,37.6551724 C64,38.462069 63.4,39 62.7,39 Z" id="Path" fill="#9B9B9B"></path>
                    <path d="M33.6,28.6 L26.7,23.2 L0,35.1 L0,37.7 C0,38.3 0.6,38.7 1.3,38.7 L62.7,38.7 C63.4,38.7 64,38.3 64,37.7 L64,14 L33.6,28.6 Z" id="Path" fill="#4A4A4A"></path>
                    <circle id="Oval" fill="#F8F8F8" cx="8.5" cy="8.8" r="3"></circle>
                </g>
                <rect id="Rectangle" stroke="#000000" stroke-width="2" x="14" y="27" width="62" height="37"></rect>
            </g>
        </g>
    </g>
</svg>