<?xml version="1.0" encoding="UTF-8"?>
<svg width="90px" height="90px" viewBox="0 0 90 90" version="1.1" xmlns="http://www.w3.org/2000/svg" xmlns:xlink="http://www.w3.org/1999/xlink">
    <!-- Generator: Sketch 54.1 (76490) - https://sketchapp.com -->
    <title>bg-cover</title>
    <desc>Created with Sketch.</desc>
    <defs>
        <path d="M88.171875,39 L1.828125,39 C0.84375,39 0,38.462069 0,37.6551724 L0,1.34482759 C0,0.537931034 0.84375,0 1.828125,0 L88.171875,0 C89.15625,0 90,0.537931034 90,1.34482759 L90,37.6551724 C90,38.462069 89.15625,39 88.171875,39 Z" id="path-1"></path>
        <rect id="path-3" x="13" y="0" width="64" height="39"></rect>
        <path d="M88.171875,39 L1.828125,39 C0.84375,39 0,38.462069 0,37.6551724 L0,1.34482759 C0,0.537931034 0.84375,0 1.828125,0 L88.171875,0 C89.15625,0 90,0.537931034 90,1.34482759 L90,37.6551724 C90,38.462069 89.15625,39 88.171875,39 Z" id="path-5"></path>
    </defs>
    <g id="WP-Customizer" stroke="none" stroke-width="1" fill="none" fill-rule="evenodd">
        <g id="Background-type" transform="translate(-210.000000, -124.000000)">
            <g id="bg-cover" transform="translate(210.000000, 124.000000)">
                <path d="M86.1,90 L3.9,90 C1.7,90 0,88.3 0,86.1 L0,3.9 C0,1.7 1.7,0 3.9,0 L86.2,0 C88.3,0 90,1.7 90,3.9 L90,86.2 C90,88.3 88.3,90 86.1,90 Z" id="Path" fill="#FFFFFF" fill-rule="nonzero"></path>
                <g id="Image" opacity="0.300000012" transform="translate(0.000000, 26.000000)">
                    <mask id="mask-2" fill="white">
                        <use xlink:href="#path-1"></use>
                    </mask>
                    <use id="Path" fill="#9B9B9B" fill-rule="nonzero" xlink:href="#path-1"></use>
                    <path d="M47.775,25.3882591 L37.9640625,17.7364372 L0,34.5987854 L0,38.282996 C0,39.1331984 0.853125,39.7 1.8484375,39.7 L89.1515625,39.7 C90.146875,39.7 91,39.1331984 91,38.282996 L91,4.7 L47.775,25.3882591 Z" id="Path" fill="#4A4A4A" fill-rule="nonzero" mask="url(#mask-2)"></path>
                    <circle id="Oval" fill="#F8F8F8" fill-rule="nonzero" mask="url(#mask-2)" cx="8.5" cy="8.8" r="3"></circle>
                </g>
                <g id="Group" transform="translate(0.000000, 26.000000)">
                    <mask id="mask-4" fill="white">
                        <use xlink:href="#path-3"></use>
                    </mask>
                    <use id="Rectangle" fill="#D8D8D8" xlink:href="#path-3"></use>
                    <g id="Image" mask="url(#mask-4)">
                        <mask id="mask-6" fill="white">
                            <use xlink:href="#path-5"></use>
                        </mask>
                        <use id="Path" fill="#9B9B9B" fill-rule="nonzero" xlink:href="#path-5"></use>
                        <path d="M47.775,25.3882591 L37.9640625,17.7364372 L0,34.5987854 L0,38.282996 C0,39.1331984 0.853125,39.7 1.8484375,39.7 L89.1515625,39.7 C90.146875,39.7 91,39.1331984 91,38.282996 L91,4.7 L47.775,25.3882591 Z" id="Path" fill="#4A4A4A" fill-rule="nonzero" mask="url(#mask-6)"></path>
                        <circle id="Oval" fill="#F8F8F8" fill-rule="nonzero" mask="url(#mask-6)" cx="8.5" cy="8.8" r="3"></circle>
                    </g>
                </g>
                <rect id="Rectangle" stroke="#000000" stroke-width="2" x="14" y="27" width="62" height="37"></rect>
            </g>
        </g>
    </g>
</svg>