<?xml version="1.0" encoding="UTF-8"?>
<svg width="90px" height="90px" viewBox="0 0 90 90" version="1.1" xmlns="http://www.w3.org/2000/svg" xmlns:xlink="http://www.w3.org/1999/xlink">
    <!-- Generator: Sketch 54.1 (76490) - https://sketchapp.com -->
    <title>cover-image-wide</title>
    <desc>Created with Sketch.</desc>
    <defs>
        <path d="M66,35.5 L0,35.5 L0,0.899082569 C3.34281529,0.899082569 59.9869838,0.899082569 66,0.899082569 L66,35.5 Z" id="path-1"></path>
    </defs>
    <g id="WP-Customizer" stroke="none" stroke-width="1" fill="none" fill-rule="evenodd">
        <g id="Cover-image" transform="translate(-84.000000, -124.000000)">
            <g id="cover-image-wide" transform="translate(84.000000, 124.000000)">
                <path d="M86.1,90 L3.9,90 C1.7,90 0,88.3 0,86.1 L0,3.9 C0,1.7 1.7,0 3.9,0 L86.2,0 C88.3,0 90,1.7 90,3.9 L90,86.2 C90,88.3 88.3,90 86.1,90 Z" id="Path" fill="#FFFFFF" fill-rule="nonzero"></path>
                <g id="Group-2" transform="translate(12.000000, 8.100000)">
                    <mask id="mask-2" fill="white">
                        <use xlink:href="#path-1"></use>
                    </mask>
                    <use id="Path" fill="#9B9B9B" fill-rule="nonzero" xlink:href="#path-1"></use>
                    <polygon id="Path" fill="#4A4A4A" fill-rule="nonzero" mask="url(#mask-2)" points="78 35.5 78 -4 35.2 20.7 25.6 11.6 -12 31.6 -12 35.5"></polygon>
                </g>
                <rect id="Rectangle" fill="#BFBFBF" fill-rule="nonzero" x="23" y="48" width="45" height="2"></rect>
                <rect id="Rectangle" fill="#BFBFBF" fill-rule="nonzero" x="23" y="52" width="45" height="2"></rect>
                <rect id="Rectangle" fill="#BFBFBF" fill-rule="nonzero" x="23" y="56" width="45" height="2"></rect>
                <rect id="Rectangle" fill="#BFBFBF" fill-rule="nonzero" x="23" y="60" width="45" height="2"></rect>
                <rect id="Rectangle" fill="#BFBFBF" fill-rule="nonzero" x="23" y="64" width="45" height="2"></rect>
                <rect id="Rectangle" fill="#BFBFBF" fill-rule="nonzero" x="23" y="68" width="45" height="2"></rect>
                <rect id="Rectangle" fill="#BFBFBF" fill-rule="nonzero" x="23" y="72" width="45" height="2"></rect>
                <rect id="Rectangle" fill="#BFBFBF" fill-rule="nonzero" x="23" y="76" width="45" height="2"></rect>
                <rect id="Rectangle" fill="#BFBFBF" fill-rule="nonzero" x="23" y="80" width="31" height="2"></rect>
                <rect id="Rectangle" fill="#FFFFFF" fill-rule="nonzero" x="23" y="29" width="45" height="4"></rect>
                <rect id="Rectangle" fill="#FFFFFF" fill-rule="nonzero" x="23" y="22" width="24.4" height="4"></rect>
                <g id="Group" transform="translate(23.000000, 36.000000)" fill="#FFFFFF" fill-rule="nonzero">
                    <rect id="Rectangle" x="0" y="0" width="8" height="2"></rect>
                    <rect id="Rectangle" x="10" y="0" width="8" height="2"></rect>
                    <rect id="Rectangle" x="20" y="0" width="8" height="2"></rect>
                    <rect id="Rectangle" x="30" y="0" width="8" height="2"></rect>
                </g>
            </g>
        </g>
    </g>
</svg>