<?xml version="1.0" encoding="UTF-8"?>
<svg width="90px" height="90px" viewBox="0 0 90 90" version="1.1" xmlns="http://www.w3.org/2000/svg" xmlns:xlink="http://www.w3.org/1999/xlink">
    <!-- Generator: Sketch 54.1 (76490) - https://sketchapp.com -->
    <title>gallery-img-portrait</title>
    <desc>Created with Sketch.</desc>
    <defs>
        <path d="M29,38 L0,38 L0,3.39908257 C0,1.48165138 0,0.940075796 0,0 L29,0 C29,0.857090381 29,1.48165138 29,3.39908257 L29,38 Z" id="path-1"></path>
        <path d="M28,38 L0,38 L0,3.39908257 C0,1.48165138 0,0.940075796 0,0 L28,0 C28,0.857090381 28,1.48165138 28,3.39908257 L28,38 Z" id="path-3"></path>
        <path d="M29,38 L0,38 L0,3.39908257 C0,1.48165138 0,0.940075796 0,0 L29,0 C29,0.857090381 29,1.48165138 29,3.39908257 L29,38 Z" id="path-5"></path>
    </defs>
    <g id="WP-Customizer" stroke="none" stroke-width="1" fill="none" fill-rule="evenodd">
        <g id="Gallery-images-width" transform="translate(-210.000000, -124.000000)">
            <g id="gallery-img-portrait" transform="translate(210.000000, 124.000000)">
                <path d="M86.1,90 L3.9,90 C1.7,90 0,88.3 0,86.1 L0,3.9 C0,1.7 1.7,0 3.9,0 L86.2,0 C88.3,0 90,1.7 90,3.9 L90,86.2 C90,88.3 88.3,90 86.1,90 Z" id="Path" fill="#FFFFFF" fill-rule="nonzero"></path>
                <g id="Group-2" transform="translate(0.000000, 27.000000)">
                    <mask id="mask-2" fill="white">
                        <use xlink:href="#path-1"></use>
                    </mask>
                    <use id="Path" fill="#9B9B9B" fill-rule="nonzero" xlink:href="#path-1"></use>
                    <circle id="Oval" fill="#F8F8F8" fill-rule="nonzero" mask="url(#mask-2)" cx="4" cy="5" r="2"></circle>
                    <polygon id="Path" fill="#4A4A4A" fill-rule="nonzero" mask="url(#mask-2)" points="42 38 42 20 22.0266667 31.2556962 17.5466667 27.1088608 0 36.2227848 0 38"></polygon>
                </g>
                <g id="Group-2-Copy" transform="translate(31.000000, 27.000000)">
                    <mask id="mask-4" fill="white">
                        <use xlink:href="#path-3"></use>
                    </mask>
                    <use id="Path" fill="#9B9B9B" fill-rule="nonzero" xlink:href="#path-3"></use>
                    <circle id="Oval" fill="#F8F8F8" fill-rule="nonzero" mask="url(#mask-4)" cx="4" cy="5" r="2"></circle>
                    <polygon id="Path" fill="#4A4A4A" fill-rule="nonzero" mask="url(#mask-4)" points="41 38 41 20 21.5022222 31.2556962 17.1288889 27.1088608 0 36.2227848 0 38"></polygon>
                </g>
                <g id="Group-2-Copy-2" transform="translate(61.000000, 27.000000)">
                    <mask id="mask-6" fill="white">
                        <use xlink:href="#path-5"></use>
                    </mask>
                    <use id="Path" fill="#9B9B9B" fill-rule="nonzero" xlink:href="#path-5"></use>
                    <circle id="Oval" fill="#F8F8F8" fill-rule="nonzero" mask="url(#mask-6)" cx="4" cy="5" r="2"></circle>
                    <polygon id="Path" fill="#4A4A4A" fill-rule="nonzero" mask="url(#mask-6)" points="42 38 42 20 22.0266667 31.2556962 17.5466667 27.1088608 0 36.2227848 0 38"></polygon>
                </g>
                <rect id="Rectangle" fill="#BFBFBF" fill-rule="nonzero" x="23" y="72" width="45" height="2"></rect>
                <rect id="Rectangle" fill="#BFBFBF" fill-rule="nonzero" x="23" y="76" width="45" height="2"></rect>
                <rect id="Rectangle" fill="#BFBFBF" fill-rule="nonzero" x="23" y="80" width="31" height="2"></rect>
                <rect id="Rectangle" fill="#BFBFBF" fill-rule="nonzero" x="23" y="12" width="45" height="4"></rect>
                <rect id="Rectangle" fill="#BFBFBF" fill-rule="nonzero" x="23" y="5" width="24.4" height="4"></rect>
                <g id="Group" transform="translate(23.000000, 19.000000)" fill="#BFBFBF" fill-rule="nonzero">
                    <rect id="Rectangle" x="0" y="0" width="8" height="2"></rect>
                    <rect id="Rectangle" x="10" y="0" width="8" height="2"></rect>
                    <rect id="Rectangle" x="20" y="0" width="8" height="2"></rect>
                    <rect id="Rectangle" x="30" y="0" width="8" height="2"></rect>
                </g>
            </g>
        </g>
    </g>
</svg>