<?xml version="1.0" encoding="UTF-8"?>
<svg width="90px" height="90px" viewBox="0 0 90 90" version="1.1" xmlns="http://www.w3.org/2000/svg" xmlns:xlink="http://www.w3.org/1999/xlink">
    <!-- Generator: Sketch 54.1 (76490) - https://sketchapp.com -->
    <title>mp-breadcrumb</title>
    <desc>Created with Sketch.</desc>
    <g id="WP-Customizer" stroke="none" stroke-width="1" fill="none" fill-rule="evenodd">
        <g id="Categories-&amp;-Breadcrumb" transform="translate(-209.000000, -124.000000)" fill-rule="nonzero">
            <g id="mp-breadcrumb" transform="translate(209.000000, 124.000000)">
                <path d="M86.1,90 L3.9,90 C1.7,90 0,88.3 0,86.1 L0,3.9 C0,1.7 1.7,0 3.9,0 L86.2,0 C88.3,0 90,1.7 90,3.9 L90,86.2 C90,88.3 88.3,90 86.1,90 Z" id="Path" fill="#FFFFFF"></path>
                <path d="M90,43.6 L0,43.6 L0,3.9 C0,1.7 1.7,0 3.9,0 L86.2,0 C88.3,0 90,1.7 90,3.9 L90,43.6 Z" id="Path" fill="#E6E6E6"></path>
                <rect id="Rectangle" fill="#BFBFBF" x="23" y="48" width="45" height="2"></rect>
                <rect id="Rectangle" fill="#BFBFBF" x="23" y="52" width="45" height="2"></rect>
                <rect id="Rectangle" fill="#BFBFBF" x="23" y="56" width="45" height="2"></rect>
                <rect id="Rectangle" fill="#BFBFBF" x="23" y="60" width="45" height="2"></rect>
                <rect id="Rectangle" fill="#BFBFBF" x="23" y="64" width="45" height="2"></rect>
                <rect id="Rectangle" fill="#BFBFBF" x="23" y="68" width="45" height="2"></rect>
                <rect id="Rectangle" fill="#BFBFBF" x="23" y="72" width="45" height="2"></rect>
                <rect id="Rectangle" fill="#BFBFBF" x="23" y="76" width="45" height="2"></rect>
                <rect id="Rectangle" fill="#BFBFBF" x="23" y="80" width="31" height="2"></rect>
                <polygon id="Path" fill="#E6E6E6" points="90 43.6 90 4.1 47.2 28.8 37.6 19.7 0 39.7 0 43.6"></polygon>
                <rect id="Rectangle" fill="#BFBFBF" x="23" y="22" width="45" height="4"></rect>
                <rect id="Rectangle" fill="#4A4A4A" x="23" y="17" width="24.4" height="2"></rect>
                <g id="Group" transform="translate(23.000000, 29.000000)" fill="#FFFFFF">
                    <rect id="Rectangle" x="0" y="0" width="8" height="2"></rect>
                    <rect id="Rectangle" x="10" y="0" width="8" height="2"></rect>
                    <rect id="Rectangle" x="20" y="0" width="8" height="2"></rect>
                    <rect id="Rectangle" x="30" y="0" width="8" height="2"></rect>
                </g>
            </g>
        </g>
    </g>
</svg>