<?xml version="1.0" encoding="UTF-8"?>
<svg width="90px" height="90px" viewBox="0 0 90 90" version="1.1" xmlns="http://www.w3.org/2000/svg" xmlns:xlink="http://www.w3.org/1999/xlink">
    <!-- Generator: Sketch 54.1 (76490) - https://sketchapp.com -->
    <title>list-listing</title>
    <desc>Created with Sketch.</desc>
    <g id="WP-Customizer" stroke="none" stroke-width="1" fill="none" fill-rule="evenodd">
        <g id="Listing-posts" transform="translate(-84.000000, -124.000000)" fill-rule="nonzero">
            <g id="list-listing" transform="translate(84.000000, 124.000000)">
                <path d="M86.1,90 L3.9,90 C1.7,90 0,88.3 0,86.1 L0,3.9 C0,1.7 1.7,0 3.9,0 L86.2,0 C88.3,0 90,1.7 90,3.9 L90,86.2 C90,88.3 88.3,90 86.1,90 Z" id="Path" fill="#FFFFFF"></path>
                <g id="article" transform="translate(19.000000, 16.000000)">
                    <g id="Group-2">
                        <rect id="Rectangle-Copy-6" fill="#BFBFBF" x="17" y="8" width="24" height="2"></rect>
                        <rect id="Rectangle-Copy-7" fill="#BFBFBF" x="17" y="4" width="35" height="2"></rect>
                        <rect id="Rectangle-Copy-8" fill="#BFBFBF" x="17" y="0" width="35" height="2"></rect>
                        <g id="Group">
                            <path d="M11.75625,10 L0.24375,10 C0.1125,10 0,9.86206897 0,9.65517241 L0,0.344827586 C0,0.137931034 0.1125,0 0.24375,0 L11.75625,0 C11.8875,0 12,0.137931034 12,0.344827586 L12,9.65517241 C12,9.86206897 11.8875,10 11.75625,10 Z" id="Path" fill="#9B9B9B"></path>
                            <path d="M12,6.52504245 L12,10 L0.445714286,10 C0.205714286,10 0,9.87096774 0,9.67741935 L0,8.83870968 L9.15428573,5 L11.52,6.74193548 L12,6.52504245 Z" id="Combined-Shape" fill="#4A4A4A"></path>
                            <circle id="Oval" fill="#F8F8F8" cx="3" cy="3" r="1"></circle>
                        </g>
                    </g>
                    <g id="Group-2-Copy" transform="translate(0.000000, 16.000000)">
                        <rect id="Rectangle-Copy-6" fill="#BFBFBF" x="17" y="8" width="24" height="2"></rect>
                        <rect id="Rectangle-Copy-7" fill="#BFBFBF" x="17" y="4" width="35" height="2"></rect>
                        <rect id="Rectangle-Copy-8" fill="#BFBFBF" x="17" y="0" width="35" height="2"></rect>
                        <g id="Group">
                            <path d="M11.75625,10 L0.24375,10 C0.1125,10 0,9.86206897 0,9.65517241 L0,0.344827586 C0,0.137931034 0.1125,0 0.24375,0 L11.75625,0 C11.8875,0 12,0.137931034 12,0.344827586 L12,9.65517241 C12,9.86206897 11.8875,10 11.75625,10 Z" id="Path" fill="#9B9B9B"></path>
                            <path d="M12,6.52504245 L12,10 L0.445714286,10 C0.205714286,10 0,9.87096774 0,9.67741935 L0,8.83870968 L9.15428573,5 L11.52,6.74193548 L12,6.52504245 Z" id="Combined-Shape" fill="#4A4A4A"></path>
                            <circle id="Oval" fill="#F8F8F8" cx="3" cy="3" r="1"></circle>
                        </g>
                    </g>
                    <g id="Group-2-Copy-2" transform="translate(0.000000, 32.000000)">
                        <rect id="Rectangle-Copy-6" fill="#BFBFBF" x="17" y="8" width="24" height="2"></rect>
                        <rect id="Rectangle-Copy-7" fill="#BFBFBF" x="17" y="4" width="35" height="2"></rect>
                        <rect id="Rectangle-Copy-8" fill="#BFBFBF" x="17" y="0" width="35" height="2"></rect>
                        <g id="Group">
                            <path d="M11.75625,10 L0.24375,10 C0.1125,10 0,9.86206897 0,9.65517241 L0,0.344827586 C0,0.137931034 0.1125,0 0.24375,0 L11.75625,0 C11.8875,0 12,0.137931034 12,0.344827586 L12,9.65517241 C12,9.86206897 11.8875,10 11.75625,10 Z" id="Path" fill="#9B9B9B"></path>
                            <path d="M12,6.52504245 L12,10 L0.445714286,10 C0.205714286,10 0,9.87096774 0,9.67741935 L0,8.83870968 L9.15428573,5 L11.52,6.74193548 L12,6.52504245 Z" id="Combined-Shape" fill="#4A4A4A"></path>
                            <circle id="Oval" fill="#F8F8F8" cx="3" cy="3" r="1"></circle>
                        </g>
                    </g>
                    <g id="Group-2-Copy-3" transform="translate(0.000000, 48.000000)">
                        <rect id="Rectangle-Copy-6" fill="#BFBFBF" x="17" y="8" width="24" height="2"></rect>
                        <rect id="Rectangle-Copy-7" fill="#BFBFBF" x="17" y="4" width="35" height="2"></rect>
                        <rect id="Rectangle-Copy-8" fill="#BFBFBF" x="17" y="0" width="35" height="2"></rect>
                        <g id="Group">
                            <path d="M11.75625,10 L0.24375,10 C0.1125,10 0,9.86206897 0,9.65517241 L0,0.344827586 C0,0.137931034 0.1125,0 0.24375,0 L11.75625,0 C11.8875,0 12,0.137931034 12,0.344827586 L12,9.65517241 C12,9.86206897 11.8875,10 11.75625,10 Z" id="Path" fill="#9B9B9B"></path>
                            <path d="M12,6.52504245 L12,10 L0.445714286,10 C0.205714286,10 0,9.87096774 0,9.67741935 L0,8.83870968 L9.15428573,5 L11.52,6.74193548 L12,6.52504245 Z" id="Combined-Shape" fill="#4A4A4A"></path>
                            <circle id="Oval" fill="#F8F8F8" cx="3" cy="3" r="1"></circle>
                        </g>
                    </g>
                </g>
            </g>
        </g>
    </g>
</svg>