<?xml version="1.0" encoding="UTF-8"?>
<svg width="90px" height="90px" viewBox="0 0 90 90" version="1.1" xmlns="http://www.w3.org/2000/svg" xmlns:xlink="http://www.w3.org/1999/xlink">
    <!-- Generator: Sketch 54.1 (76490) - https://sketchapp.com -->
    <title>masonry-listing</title>
    <desc>Created with Sketch.</desc>
    <g id="WP-Customizer" stroke="none" stroke-width="1" fill="none" fill-rule="evenodd">
        <g id="Listing-posts" transform="translate(-210.000000, -124.000000)" fill-rule="nonzero">
            <g id="masonry-listing" transform="translate(210.000000, 124.000000)">
                <path d="M86.1,90 L3.9,90 C1.7,90 0,88.3 0,86.1 L0,3.9 C0,1.7 1.7,0 3.9,0 L86.2,0 C88.3,0 90,1.7 90,3.9 L90,86.2 C90,88.3 88.3,90 86.1,90 Z" id="Path" fill="#FFFFFF"></path>
                <g id="article" transform="translate(19.000000, 17.000000)">
                    <g id="Group-2">
                        <rect id="Rectangle-Copy-6" fill="#BFBFBF" x="7" y="4" width="9" height="1"></rect>
                        <rect id="Rectangle-Copy-6-Copy" fill="#BFBFBF" x="0" y="10" width="16" height="1"></rect>
                        <rect id="Rectangle-Copy-6-Copy-2" fill="#BFBFBF" x="0" y="16" width="12" height="1"></rect>
                        <rect id="Rectangle-Copy-7" fill="#BFBFBF" x="7" y="2" width="9" height="1"></rect>
                        <rect id="Rectangle-Copy-7-Copy" fill="#BFBFBF" x="0" y="8" width="16" height="1"></rect>
                        <rect id="Rectangle-Copy-7-Copy-2" fill="#BFBFBF" x="0" y="14" width="16" height="1"></rect>
                        <rect id="Rectangle-Copy-8" fill="#BFBFBF" x="7" y="0" width="9" height="1"></rect>
                        <rect id="Rectangle-Copy-8-Copy" fill="#BFBFBF" x="0" y="6" width="16" height="1"></rect>
                        <rect id="Rectangle-Copy-8-Copy-2" fill="#BFBFBF" x="0" y="12" width="16" height="1"></rect>
                        <g id="Group">
                            <path d="M5.878125,5 L0.121875,5 C0.05625,5 0,4.93103448 0,4.82758621 L0,0.172413793 C0,0.0689655172 0.05625,0 0.121875,0 L5.878125,0 C5.94375,0 6,0.0689655172 6,0.172413793 L6,4.82758621 C6,4.93103448 5.94375,5 5.878125,5 Z" id="Path" fill="#9B9B9B"></path>
                            <path d="M6,2.91502547 L6,5 L0.222857143,5 C0.102857143,5 0,4.92258065 0,4.80645161 L0,4.30322581 L4.57714287,2 L5.76,3.04516129 L6,2.91502547 Z" id="Combined-Shape" fill="#4A4A4A"></path>
                            <circle id="Oval" fill="#F8F8F8" cx="1.5" cy="1.5" r="1"></circle>
                        </g>
                    </g>
                    <g id="Group-2-Copy-7" transform="translate(36.000000, 0.000000)">
                        <rect id="Rectangle-Copy-6" fill="#BFBFBF" x="7" y="4" width="9" height="1"></rect>
                        <rect id="Rectangle-Copy-6-Copy" fill="#BFBFBF" x="0" y="10" width="16" height="1"></rect>
                        <rect id="Rectangle-Copy-6-Copy-2" fill="#BFBFBF" x="0" y="16" width="12" height="1"></rect>
                        <rect id="Rectangle-Copy-7" fill="#BFBFBF" x="7" y="2" width="9" height="1"></rect>
                        <rect id="Rectangle-Copy-7-Copy" fill="#BFBFBF" x="0" y="8" width="16" height="1"></rect>
                        <rect id="Rectangle-Copy-7-Copy-2" fill="#BFBFBF" x="0" y="14" width="16" height="1"></rect>
                        <rect id="Rectangle-Copy-8" fill="#BFBFBF" x="7" y="0" width="9" height="1"></rect>
                        <rect id="Rectangle-Copy-8-Copy" fill="#BFBFBF" x="0" y="6" width="16" height="1"></rect>
                        <rect id="Rectangle-Copy-8-Copy-2" fill="#BFBFBF" x="0" y="12" width="16" height="1"></rect>
                        <g id="Group">
                            <path d="M5.878125,5 L0.121875,5 C0.05625,5 0,4.93103448 0,4.82758621 L0,0.172413793 C0,0.0689655172 0.05625,0 0.121875,0 L5.878125,0 C5.94375,0 6,0.0689655172 6,0.172413793 L6,4.82758621 C6,4.93103448 5.94375,5 5.878125,5 Z" id="Path" fill="#9B9B9B"></path>
                            <path d="M6,2.91502547 L6,5 L0.222857143,5 C0.102857143,5 0,4.92258065 0,4.80645161 L0,4.30322581 L4.57714287,2 L5.76,3.04516129 L6,2.91502547 Z" id="Combined-Shape" fill="#4A4A4A"></path>
                            <circle id="Oval" fill="#F8F8F8" cx="1.5" cy="1.5" r="1"></circle>
                        </g>
                    </g>
                    <g id="Group-2-Copy-5" transform="translate(18.000000, 39.000000)">
                        <rect id="Rectangle-Copy-6" fill="#BFBFBF" x="7" y="4" width="9" height="1"></rect>
                        <rect id="Rectangle-Copy-6-Copy-2" fill="#BFBFBF" x="0" y="12" width="12" height="1"></rect>
                        <rect id="Rectangle-Copy-7" fill="#BFBFBF" x="7" y="2" width="9" height="1"></rect>
                        <rect id="Rectangle-Copy-7-Copy" fill="#BFBFBF" x="0" y="8" width="16" height="1"></rect>
                        <rect id="Rectangle-Copy-7-Copy-2" fill="#BFBFBF" x="0" y="10" width="16" height="1"></rect>
                        <rect id="Rectangle-Copy-8" fill="#BFBFBF" x="7" y="0" width="9" height="1"></rect>
                        <rect id="Rectangle-Copy-8-Copy" fill="#BFBFBF" x="0" y="6" width="16" height="1"></rect>
                        <g id="Group">
                            <path d="M5.878125,5 L0.121875,5 C0.05625,5 0,4.93103448 0,4.82758621 L0,0.172413793 C0,0.0689655172 0.05625,0 0.121875,0 L5.878125,0 C5.94375,0 6,0.0689655172 6,0.172413793 L6,4.82758621 C6,4.93103448 5.94375,5 5.878125,5 Z" id="Path" fill="#9B9B9B"></path>
                            <path d="M6,2.91502547 L6,5 L0.222857143,5 C0.102857143,5 0,4.92258065 0,4.80645161 L0,4.30322581 L4.57714287,2 L5.76,3.04516129 L6,2.91502547 Z" id="Combined-Shape" fill="#4A4A4A"></path>
                            <circle id="Oval" fill="#F8F8F8" cx="1.5" cy="1.5" r="1"></circle>
                        </g>
                    </g>
                    <g id="article-wide" transform="translate(18.000000, 17.000000)">
                        <rect id="Rectangle-Copy-6-Copy" fill="#BFBFBF" x="0" y="9" width="16" height="1"></rect>
                        <rect id="Rectangle-Copy-6-Copy-2" fill="#BFBFBF" x="0" y="15" width="12" height="1"></rect>
                        <rect id="Rectangle-Copy-7-Copy-2" fill="#BFBFBF" x="0" y="13" width="16" height="1"></rect>
                        <rect id="Rectangle-Copy-8-Copy-2" fill="#BFBFBF" x="0" y="11" width="16" height="1"></rect>
                        <g id="image">
                            <path d="M15.675,8 L0.325,8 C0.15,8 0,7.88965517 0,7.72413793 L0,0.275862069 C0,0.110344828 0.15,0 0.325,0 L15.675,0 C15.85,0 16,0.110344828 16,0.275862069 L16,7.72413793 C16,7.88965517 15.85,8 15.675,8 Z" id="Path" fill="#9B9B9B"></path>
                            <path d="M16,2.44006791 L16,8 L0.594285715,8 C0.274285715,8 0,7.79354839 0,7.48387097 L0,6.14193548 L12.2057143,0 L15.36,2.78709677 L16,2.44006791 Z" id="Combined-Shape" fill="#4A4A4A"></path>
                            <circle id="Oval" fill="#F8F8F8" cx="1.5" cy="1.5" r="1"></circle>
                        </g>
                    </g>
                    <g id="article-wide-copy" transform="translate(0.000000, 40.000000)">
                        <rect id="Rectangle-Copy-6-Copy" fill="#BFBFBF" x="0" y="9" width="16" height="1"></rect>
                        <rect id="Rectangle-Copy-6-Copy-2" fill="#BFBFBF" x="0" y="15" width="12" height="1"></rect>
                        <rect id="Rectangle-Copy-7-Copy-2" fill="#BFBFBF" x="0" y="13" width="16" height="1"></rect>
                        <rect id="Rectangle-Copy-8-Copy-2" fill="#BFBFBF" x="0" y="11" width="16" height="1"></rect>
                        <g id="image">
                            <path d="M15.675,8 L0.325,8 C0.15,8 0,7.88965517 0,7.72413793 L0,0.275862069 C0,0.110344828 0.15,0 0.325,0 L15.675,0 C15.85,0 16,0.110344828 16,0.275862069 L16,7.72413793 C16,7.88965517 15.85,8 15.675,8 Z" id="Path" fill="#9B9B9B"></path>
                            <path d="M16,2.44006791 L16,8 L0.594285715,8 C0.274285715,8 0,7.79354839 0,7.48387097 L0,6.14193548 L12.2057143,0 L15.36,2.78709677 L16,2.44006791 Z" id="Combined-Shape" fill="#4A4A4A"></path>
                            <circle id="Oval" fill="#F8F8F8" cx="1.5" cy="1.5" r="1"></circle>
                        </g>
                    </g>
                    <g id="article-wide-copy-2" transform="translate(36.000000, 40.000000)">
                        <rect id="Rectangle-Copy-6-Copy" fill="#BFBFBF" x="0" y="9" width="16" height="1"></rect>
                        <rect id="Rectangle-Copy-6-Copy-2" fill="#BFBFBF" x="0" y="15" width="12" height="1"></rect>
                        <rect id="Rectangle-Copy-7-Copy-2" fill="#BFBFBF" x="0" y="13" width="16" height="1"></rect>
                        <rect id="Rectangle-Copy-8-Copy-2" fill="#BFBFBF" x="0" y="11" width="16" height="1"></rect>
                        <g id="image">
                            <path d="M15.675,8 L0.325,8 C0.15,8 0,7.88965517 0,7.72413793 L0,0.275862069 C0,0.110344828 0.15,0 0.325,0 L15.675,0 C15.85,0 16,0.110344828 16,0.275862069 L16,7.72413793 C16,7.88965517 15.85,8 15.675,8 Z" id="Path" fill="#9B9B9B"></path>
                            <path d="M16,2.44006791 L16,8 L0.594285715,8 C0.274285715,8 0,7.79354839 0,7.48387097 L0,6.14193548 L12.2057143,0 L15.36,2.78709677 L16,2.44006791 Z" id="Combined-Shape" fill="#4A4A4A"></path>
                            <circle id="Oval" fill="#F8F8F8" cx="1.5" cy="1.5" r="1"></circle>
                        </g>
                    </g>
                    <g id="Group-2-Copy-4" transform="translate(18.000000, 0.000000)">
                        <rect id="Rectangle-Copy-6" fill="#BFBFBF" x="7" y="4" width="9" height="1"></rect>
                        <rect id="Rectangle-Copy-6-Copy-2" fill="#BFBFBF" x="0" y="10" width="12" height="1"></rect>
                        <rect id="Rectangle-Copy-7" fill="#BFBFBF" x="7" y="2" width="9" height="1"></rect>
                        <rect id="Rectangle-Copy-7-Copy" fill="#BFBFBF" x="0" y="8" width="16" height="1"></rect>
                        <rect id="Rectangle-Copy-8" fill="#BFBFBF" x="7" y="0" width="9" height="1"></rect>
                        <rect id="Rectangle-Copy-8-Copy" fill="#BFBFBF" x="0" y="6" width="16" height="1"></rect>
                        <g id="Group">
                            <path d="M5.878125,5 L0.121875,5 C0.05625,5 0,4.93103448 0,4.82758621 L0,0.172413793 C0,0.0689655172 0.05625,0 0.121875,0 L5.878125,0 C5.94375,0 6,0.0689655172 6,0.172413793 L6,4.82758621 C6,4.93103448 5.94375,5 5.878125,5 Z" id="Path" fill="#9B9B9B"></path>
                            <path d="M6,2.91502547 L6,5 L0.222857143,5 C0.102857143,5 0,4.92258065 0,4.80645161 L0,4.30322581 L4.57714287,2 L5.76,3.04516129 L6,2.91502547 Z" id="Combined-Shape" fill="#4A4A4A"></path>
                            <circle id="Oval" fill="#F8F8F8" cx="1.5" cy="1.5" r="1"></circle>
                        </g>
                    </g>
                    <g id="Group-2-Copy-6" transform="translate(0.000000, 23.000000)">
                        <rect id="Rectangle-Copy-6" fill="#BFBFBF" x="7" y="4" width="9" height="1"></rect>
                        <rect id="Rectangle-Copy-6-Copy-2" fill="#BFBFBF" x="0" y="10" width="12" height="1"></rect>
                        <rect id="Rectangle-Copy-7" fill="#BFBFBF" x="7" y="2" width="9" height="1"></rect>
                        <rect id="Rectangle-Copy-7-Copy" fill="#BFBFBF" x="0" y="8" width="16" height="1"></rect>
                        <rect id="Rectangle-Copy-8" fill="#BFBFBF" x="7" y="0" width="9" height="1"></rect>
                        <rect id="Rectangle-Copy-8-Copy" fill="#BFBFBF" x="0" y="6" width="16" height="1"></rect>
                        <g id="Group">
                            <path d="M5.878125,5 L0.121875,5 C0.05625,5 0,4.93103448 0,4.82758621 L0,0.172413793 C0,0.0689655172 0.05625,0 0.121875,0 L5.878125,0 C5.94375,0 6,0.0689655172 6,0.172413793 L6,4.82758621 C6,4.93103448 5.94375,5 5.878125,5 Z" id="Path" fill="#9B9B9B"></path>
                            <path d="M6,2.91502547 L6,5 L0.222857143,5 C0.102857143,5 0,4.92258065 0,4.80645161 L0,4.30322581 L4.57714287,2 L5.76,3.04516129 L6,2.91502547 Z" id="Combined-Shape" fill="#4A4A4A"></path>
                            <circle id="Oval" fill="#F8F8F8" cx="1.5" cy="1.5" r="1"></circle>
                        </g>
                    </g>
                    <g id="Group-2-Copy-8" transform="translate(36.000000, 23.000000)">
                        <rect id="Rectangle-Copy-6" fill="#BFBFBF" x="7" y="4" width="9" height="1"></rect>
                        <rect id="Rectangle-Copy-6-Copy-2" fill="#BFBFBF" x="0" y="10" width="12" height="1"></rect>
                        <rect id="Rectangle-Copy-7" fill="#BFBFBF" x="7" y="2" width="9" height="1"></rect>
                        <rect id="Rectangle-Copy-7-Copy" fill="#BFBFBF" x="0" y="8" width="16" height="1"></rect>
                        <rect id="Rectangle-Copy-8" fill="#BFBFBF" x="7" y="0" width="9" height="1"></rect>
                        <rect id="Rectangle-Copy-8-Copy" fill="#BFBFBF" x="0" y="6" width="16" height="1"></rect>
                        <g id="Group">
                            <path d="M5.878125,5 L0.121875,5 C0.05625,5 0,4.93103448 0,4.82758621 L0,0.172413793 C0,0.0689655172 0.05625,0 0.121875,0 L5.878125,0 C5.94375,0 6,0.0689655172 6,0.172413793 L6,4.82758621 C6,4.93103448 5.94375,5 5.878125,5 Z" id="Path" fill="#9B9B9B"></path>
                            <path d="M6,2.91502547 L6,5 L0.222857143,5 C0.102857143,5 0,4.92258065 0,4.80645161 L0,4.30322581 L4.57714287,2 L5.76,3.04516129 L6,2.91502547 Z" id="Combined-Shape" fill="#4A4A4A"></path>
                            <circle id="Oval" fill="#F8F8F8" cx="1.5" cy="1.5" r="1"></circle>
                        </g>
                    </g>
                </g>
            </g>
        </g>
    </g>
</svg>