<?xml version="1.0" encoding="UTF-8"?>
<svg width="90px" height="90px" viewBox="0 0 90 90" version="1.1" xmlns="http://www.w3.org/2000/svg" xmlns:xlink="http://www.w3.org/1999/xlink">
    <!-- Generator: Sketch 54.1 (76490) - https://sketchapp.com -->
    <title>blog-single-02 copy</title>
    <desc>Created with Sketch.</desc>
    <g id="WP-Customizer" stroke="none" stroke-width="1" fill="none" fill-rule="evenodd">
        <g id="Media-panel" transform="translate(-204.000000, -124.000000)" fill-rule="nonzero">
            <g id="blog-single-02-copy" transform="translate(204.000000, 124.000000)">
                <path d="M86.1,90 L3.9,90 C1.7,90 0,88.3 0,86.1 L0,3.9 C0,1.7 1.7,0 3.9,0 L86.2,0 C88.3,0 90,1.7 90,3.9 L90,86.2 C90,88.3 88.3,90 86.1,90 Z" id="Path" fill="#FFFFFF"></path>
                <path d="M90,43.6 L0,43.6 L0,3.9 C0,1.7 1.7,0 3.9,0 L86.2,0 C88.3,0 90,1.7 90,3.9 L90,43.6 Z" id="Path" fill="#D1D1D1"></path>
                <rect id="Rectangle" fill="#BFBFBF" x="25.7" y="48.2" width="38.6" height="2"></rect>
                <rect id="Rectangle" fill="#BFBFBF" x="25.7" y="52.2" width="38.6" height="2"></rect>
                <rect id="Rectangle" fill="#BFBFBF" x="25.7" y="56.2" width="38.6" height="2"></rect>
                <rect id="Rectangle" fill="#BFBFBF" x="25.7" y="60.2" width="38.6" height="2"></rect>
                <rect id="Rectangle" fill="#BFBFBF" x="25.7" y="64.2" width="38.6" height="2"></rect>
                <rect id="Rectangle" fill="#BFBFBF" x="25.7" y="68.2" width="38.6" height="2"></rect>
                <rect id="Rectangle" fill="#BFBFBF" x="25.7" y="72.2" width="38.6" height="2"></rect>
                <rect id="Rectangle" fill="#BFBFBF" x="25.7" y="76.2" width="38.6" height="2"></rect>
                <rect id="Rectangle" fill="#BFBFBF" x="25.7" y="80.2" width="26.9" height="2"></rect>
                <polygon id="Path" fill="#D1D1D1" points="90 43.6 90 4.1 47.2 28.8 37.6 19.7 0 39.7 0 43.6"></polygon>
                <rect id="Rectangle" fill="#4A4A4A" x="20.3" y="15.7" width="49.3" height="4"></rect>
                <rect id="Rectangle" fill="#4A4A4A" x="32.8" y="21.7" width="24.4" height="4"></rect>
                <g id="Group" transform="translate(25.000000, 29.000000)" fill="#4A4A4A">
                    <rect id="Rectangle" x="0" y="0.2" width="8.2" height="1.3"></rect>
                    <rect id="Rectangle" x="10.6" y="0.2" width="8.2" height="1.3"></rect>
                    <rect id="Rectangle" x="21.2" y="0.2" width="8.2" height="1.3"></rect>
                    <rect id="Rectangle" x="31.8" y="0.2" width="8.2" height="1.3"></rect>
                </g>
            </g>
        </g>
    </g>
</svg>