<?xml version="1.0" encoding="UTF-8"?>
<svg width="90px" height="90px" viewBox="0 0 90 90" version="1.1" xmlns="http://www.w3.org/2000/svg" xmlns:xlink="http://www.w3.org/1999/xlink">
    <!-- Generator: Sketch 54.1 (76490) - https://sketchapp.com -->
    <title>post-image-wide</title>
    <desc>Created with Sketch.</desc>
    <defs>
        <path d="M33.309375,17 L0.690625,17 C0.31875,17 0,16.7655172 0,16.4137931 L0,0.586206897 C0,0.234482759 0.31875,0 0.690625,0 L33.309375,0 C33.68125,0 34,0.234482759 34,0.586206897 L34,16.4137931 C34,16.7655172 33.68125,17 33.309375,17 Z" id="path-1"></path>
    </defs>
    <g id="WP-Customizer" stroke="none" stroke-width="1" fill="none" fill-rule="evenodd">
        <g id="Post-image-size" transform="translate(-84.000000, -124.000000)">
            <g id="post-image-wide" transform="translate(84.000000, 124.000000)">
                <path d="M86.1,90 L3.9,90 C1.7,90 0,88.3 0,86.1 L0,3.9 C0,1.7 1.7,0 3.9,0 L86.2,0 C88.3,0 90,1.7 90,3.9 L90,86.2 C90,88.3 88.3,90 86.1,90 Z" id="Path" fill="#FFFFFF" fill-rule="nonzero"></path>
                <g id="article" transform="translate(28.000000, 25.000000)">
                    <g id="Group-2">
                        <rect id="Rectangle-Copy-6-Copy" fill="#BFBFBF" fill-rule="nonzero" x="0" y="25" width="34" height="2"></rect>
                        <rect id="Rectangle-Copy-6-Copy-2" fill="#BFBFBF" fill-rule="nonzero" x="0" y="37" width="26" height="2"></rect>
                        <rect id="Rectangle-Copy-7-Copy" fill="#BFBFBF" fill-rule="nonzero" x="0" y="21" width="34" height="2"></rect>
                        <rect id="Rectangle-Copy-7-Copy-2" fill="#BFBFBF" fill-rule="nonzero" x="0" y="33" width="34" height="2"></rect>
                        <rect id="Rectangle-Copy-8-Copy-2" fill="#BFBFBF" fill-rule="nonzero" x="0" y="29" width="34" height="2"></rect>
                        <g id="Group">
                            <g id="Group-3">
                                <mask id="mask-2" fill="white">
                                    <use xlink:href="#path-1"></use>
                                </mask>
                                <use id="Path" fill="#9B9B9B" fill-rule="nonzero" xlink:href="#path-1"></use>
                                <path d="M35,5.0901528 L35,17.6 L1.3,17.6 C0.600000001,17.6 0,17.1354839 0,16.4387097 L0,13.4193548 L26.7000001,-0.4 L33.6,5.87096774 L35,5.0901528 Z" id="Combined-Shape" fill="#4A4A4A" fill-rule="nonzero" mask="url(#mask-2)"></path>
                                <circle id="Oval" fill="#F8F8F8" fill-rule="nonzero" mask="url(#mask-2)" cx="3.66666667" cy="3.7" r="1.5"></circle>
                            </g>
                        </g>
                    </g>
                </g>
            </g>
        </g>
    </g>
</svg>