<?xml version="1.0" encoding="UTF-8"?>
<svg width="90px" height="90px" viewBox="0 0 90 90" version="1.1" xmlns="http://www.w3.org/2000/svg" xmlns:xlink="http://www.w3.org/1999/xlink">
    <!-- Generator: Sketch 59.1 (86144) - https://sketch.com -->
    <title>post-image-wide copy 2</title>
    <desc>Created with Sketch.</desc>
    <defs>
        <path d="M43.3021875,22.1 L0.8978125,22.1 C0.414375,22.1 0,21.7951724 0,21.337931 L0,0.762068966 C0,0.304827586 0.414375,0 0.8978125,0 L43.3021875,0 C43.785625,0 44.2,0.304827586 44.2,0.762068966 L44.2,21.337931 C44.2,21.7951724 43.785625,22.1 43.3021875,22.1 Z" id="path-1"></path>
    </defs>
    <g id="WP-Customizer" stroke="none" stroke-width="1" fill="none" fill-rule="evenodd">
        <g id="Post-image-size" transform="translate(-462.000000, -124.000000)">
            <g id="post-image-wide-copy-2" transform="translate(462.000000, 124.000000)">
                <path d="M86.1,90 L3.9,90 C1.7,90 0,88.3 0,86.1 L0,3.9 C0,1.7 1.7,0 3.9,0 L86.2,0 C88.3,0 90,1.7 90,3.9 L90,86.2 C90,88.3 88.3,90 86.1,90 Z" id="Path" fill="#FFFFFF" fill-rule="nonzero"></path>
                <g id="article" transform="translate(23.000000, 25.000000)">
                    <g id="Group-2">
                        <rect id="Rectangle-Copy-6-Copy" fill="#BFBFBF" fill-rule="nonzero" x="5" y="4" width="10" height="2"></rect>
                        <rect id="Rectangle-Copy-6-Copy-3" fill="#BFBFBF" fill-rule="nonzero" x="17" y="4" width="10" height="2"></rect>
                        <rect id="Rectangle-Copy-6-Copy-4" fill="#BFBFBF" fill-rule="nonzero" x="29" y="4" width="10" height="2"></rect>
                        <rect id="Rectangle-Copy-6-Copy-2" fill="#BFBFBF" fill-rule="nonzero" x="5" y="41" width="26" height="2"></rect>
                        <rect id="Rectangle-Copy-7-Copy" fill="#BFBFBF" fill-rule="nonzero" x="5" y="0" width="34" height="2"></rect>
                        <rect id="Rectangle-Copy-7-Copy-2" fill="#BFBFBF" fill-rule="nonzero" x="5" y="33" width="34" height="2"></rect>
                        <rect id="Rectangle-Copy-7-Copy-3" fill="#BFBFBF" fill-rule="nonzero" x="5" y="37" width="34" height="2"></rect>
                        <g id="Thumb" transform="translate(0.000000, 8.000000)">
                            <g id="Group-3">
                                <mask id="mask-2" fill="white">
                                    <use xlink:href="#path-1"></use>
                                </mask>
                                <use id="Path" fill="#9B9B9B" fill-rule="nonzero" xlink:href="#path-1"></use>
                                <path d="M45.5,6.61719864 L45.5,22.88 L1.69,22.88 C0.780000001,22.88 0,22.276129 0,21.3703226 L0,17.4451613 L34.7100001,-0.52 L43.68,7.63225806 L45.5,6.61719864 Z" id="Combined-Shape" fill="#4A4A4A" fill-rule="nonzero" mask="url(#mask-2)"></path>
                                <circle id="Oval" fill="#F8F8F8" fill-rule="nonzero" mask="url(#mask-2)" cx="4.76666667" cy="4.81" r="1.95"></circle>
                            </g>
                        </g>
                    </g>
                </g>
            </g>
        </g>
    </g>
</svg>