<?xml version="1.0" encoding="UTF-8"?>
<svg width="90px" height="90px" viewBox="0 0 90 90" version="1.1" xmlns="http://www.w3.org/2000/svg" xmlns:xlink="http://www.w3.org/1999/xlink">
    <!-- Generator: Sketch 54.1 (76490) - https://sketchapp.com -->
    <title>post-nav-after-content</title>
    <desc>Created with Sketch.</desc>
    <g id="WP-Customizer" stroke="none" stroke-width="1" fill="none" fill-rule="evenodd">
        <g id="Post-navigation" transform="translate(-84.000000, -124.000000)" fill-rule="nonzero">
            <g id="post-nav-after-content" transform="translate(84.000000, 124.000000)">
                <path d="M86.1,90 L3.9,90 C1.7,90 0,88.3 0,86.1 L0,3.9 C0,1.7 1.7,0 3.9,0 L86.2,0 C88.3,0 90,1.7 90,3.9 L90,86.2 C90,88.3 88.3,90 86.1,90 Z" id="Path" fill="#FFFFFF"></path>
                <g id="previous" transform="translate(28.000000, 74.000000)">
                    <rect id="Rectangle-Copy-6" fill="#BFBFBF" x="7" y="4" width="6" height="1"></rect>
                    <rect id="Rectangle-Copy-7" fill="#BFBFBF" x="7" y="2" width="9" height="1"></rect>
                    <rect id="Rectangle-Copy-8" fill="#BFBFBF" x="7" y="0" width="9" height="1"></rect>
                    <g id="Group">
                        <path d="M5.878125,5 L0.121875,5 C0.05625,5 0,4.93103448 0,4.82758621 L0,0.172413793 C0,0.0689655172 0.05625,0 0.121875,0 L5.878125,0 C5.94375,0 6,0.0689655172 6,0.172413793 L6,4.82758621 C6,4.93103448 5.94375,5 5.878125,5 Z" id="Path" fill="#9B9B9B"></path>
                        <path d="M6,2.91502547 L6,5 L0.222857143,5 C0.102857143,5 0,4.92258065 0,4.80645161 L0,4.30322581 L4.57714287,2 L5.76,3.04516129 L6,2.91502547 Z" id="Combined-Shape" fill="#4A4A4A"></path>
                        <circle id="Oval" fill="#F8F8F8" cx="1.5" cy="1.5" r="1"></circle>
                    </g>
                </g>
                <g id="next" transform="translate(47.000000, 74.000000)">
                    <rect id="Rectangle-Copy-6" fill="#BFBFBF" x="7" y="4" width="6" height="1"></rect>
                    <rect id="Rectangle-Copy-7" fill="#BFBFBF" x="7" y="2" width="9" height="1"></rect>
                    <rect id="Rectangle-Copy-8" fill="#BFBFBF" x="7" y="0" width="9" height="1"></rect>
                    <g id="Group">
                        <path d="M5.878125,5 L0.121875,5 C0.05625,5 0,4.93103448 0,4.82758621 L0,0.172413793 C0,0.0689655172 0.05625,0 0.121875,0 L5.878125,0 C5.94375,0 6,0.0689655172 6,0.172413793 L6,4.82758621 C6,4.93103448 5.94375,5 5.878125,5 Z" id="Path" fill="#9B9B9B"></path>
                        <path d="M6,2.91502547 L6,5 L0.222857143,5 C0.102857143,5 0,4.92258065 0,4.80645161 L0,4.30322581 L4.57714287,2 L5.76,3.04516129 L6,2.91502547 Z" id="Combined-Shape" fill="#4A4A4A"></path>
                        <circle id="Oval" fill="#F8F8F8" cx="1.5" cy="1.5" r="1"></circle>
                    </g>
                </g>
                <g id="Content" opacity="0.5" transform="translate(28.000000, 6.000000)">
                    <rect id="Rectangle" fill="#BFBFBF" x="0" y="51.8" width="35" height="2"></rect>
                    <rect id="Rectangle-Copy" fill="#BFBFBF" x="0" y="48" width="35" height="2"></rect>
                    <rect id="Rectangle-Copy-2" fill="#BFBFBF" x="0" y="44" width="35" height="2"></rect>
                    <rect id="Rectangle-Copy-3" fill="#BFBFBF" x="0" y="40" width="35" height="2"></rect>
                    <rect id="Rectangle-Copy-4" fill="#BFBFBF" x="0" y="36" width="35" height="2"></rect>
                    <rect id="Rectangle-Copy-5" fill="#BFBFBF" x="21" y="32" width="14" height="2"></rect>
                    <rect id="Rectangle-Copy-6" fill="#BFBFBF" x="21" y="28" width="14" height="2"></rect>
                    <rect id="Rectangle-Copy-7" fill="#BFBFBF" x="21" y="24" width="14" height="2"></rect>
                    <rect id="Rectangle-Copy-8" fill="#BFBFBF" x="21" y="20" width="14" height="2"></rect>
                    <rect id="Rectangle" fill="#BFBFBF" x="0" y="55.8" width="35" height="2"></rect>
                    <rect id="Rectangle" fill="#BFBFBF" x="0" y="60" width="23" height="2"></rect>
                    <g id="Group" fill="#989898">
                        <rect id="Rectangle" x="0" y="0" width="34" height="4"></rect>
                        <rect id="Rectangle" x="0" y="6" width="15" height="4"></rect>
                    </g>
                    <g id="Group" transform="translate(0.000000, 18.000000)">
                        <path d="M17.634375,14.9 L0.365625,14.9 C0.16875,14.9 0,14.7 0,14.4 L0,0.9 C0,0.6 0.16875,0.4 0.365625,0.4 L17.634375,0.4 C17.83125,0.4 18,0.6 18,0.9 L18,14.4 C18,14.7 17.83125,14.9 17.634375,14.9 Z" id="Path" fill="#9B9B9B"></path>
                        <path d="M18,9.51381579 L18,14.9 L0.668571429,14.9 C0.308571429,14.9 0,14.7 0,14.4 L0,13.1 L13.7314286,7.15 L17.28,9.85 L18,9.51381579 Z" id="Combined-Shape" fill="#4A4A4A"></path>
                        <ellipse id="Oval" fill="#F8F8F8" cx="4.37142857" cy="4.4" rx="1.54285714" ry="1.5"></ellipse>
                    </g>
                    <g id="Group" transform="translate(0.000000, 12.000000)" fill="#989898">
                        <rect id="Rectangle" x="0" y="0" width="7" height="2"></rect>
                        <rect id="Rectangle" x="9" y="0" width="7" height="2"></rect>
                        <rect id="Rectangle" x="18" y="0" width="7" height="2"></rect>
                        <rect id="Rectangle" x="27" y="0" width="7" height="2"></rect>
                    </g>
                </g>
            </g>
        </g>
    </g>
</svg>