<?xml version="1.0" encoding="UTF-8"?>
<svg width="90px" height="90px" viewBox="0 0 90 90" version="1.1" xmlns="http://www.w3.org/2000/svg" xmlns:xlink="http://www.w3.org/1999/xlink">
    <!-- Generator: Sketch 54.1 (76490) - https://sketchapp.com -->
    <title>post-image-normal</title>
    <desc>Created with Sketch.</desc>
    <g id="WP-Customizer" stroke="none" stroke-width="1" fill="none" fill-rule="evenodd">
        <g id="Post-image-size" transform="translate(-210.000000, -124.000000)" fill-rule="nonzero">
            <g id="post-image-normal" transform="translate(210.000000, 124.000000)">
                <path d="M86.1,90 L3.9,90 C1.7,90 0,88.3 0,86.1 L0,3.9 C0,1.7 1.7,0 3.9,0 L86.2,0 C88.3,0 90,1.7 90,3.9 L90,86.2 C90,88.3 88.3,90 86.1,90 Z" id="Path" fill="#FFFFFF"></path>
                <g id="article" transform="translate(28.000000, 27.000000)">
                    <g id="Group-2">
                        <rect id="Rectangle-Copy-6" fill="#BFBFBF" x="16" y="9" width="18" height="2"></rect>
                        <rect id="Rectangle-Copy-6-Copy" fill="#BFBFBF" x="0" y="22" width="34" height="2"></rect>
                        <rect id="Rectangle-Copy-6-Copy-2" fill="#BFBFBF" x="0" y="35" width="26" height="2"></rect>
                        <rect id="Rectangle-Copy-7" fill="#BFBFBF" x="16" y="4" width="18" height="2"></rect>
                        <rect id="Rectangle-Copy-7-Copy" fill="#BFBFBF" x="0" y="18" width="34" height="2"></rect>
                        <rect id="Rectangle-Copy-7-Copy-2" fill="#BFBFBF" x="0" y="31" width="34" height="2"></rect>
                        <rect id="Rectangle-Copy-8" fill="#BFBFBF" x="16" y="0" width="18" height="2"></rect>
                        <rect id="Rectangle-Copy-8-Copy" fill="#BFBFBF" x="0" y="14" width="34" height="2"></rect>
                        <rect id="Rectangle-Copy-8-Copy-2" fill="#BFBFBF" x="0" y="26" width="34" height="2"></rect>
                        <g id="Group">
                            <path d="M12.7359375,11 L0.2640625,11 C0.121875,11 0,10.8482759 0,10.6206897 L0,0.379310345 C0,0.151724138 0.121875,0 0.2640625,0 L12.7359375,0 C12.878125,0 13,0.151724138 13,0.379310345 L13,10.6206897 C13,10.8482759 12.878125,11 12.7359375,11 Z" id="Path" fill="#9B9B9B"></path>
                            <path d="M13,6.41305603 L13,11 L0.482857143,11 C0.222857143,11 0,10.8296774 0,10.5741935 L0,9.46709677 L9.91714288,4.4 L12.48,6.69935484 L13,6.41305603 Z" id="Combined-Shape" fill="#4A4A4A"></path>
                            <ellipse id="Oval" fill="#F8F8F8" cx="3.25" cy="3.3" rx="1.08333333" ry="1.1"></ellipse>
                        </g>
                    </g>
                </g>
            </g>
        </g>
    </g>
</svg>