<?xml version="1.0" encoding="UTF-8"?>
<svg width="90px" height="90px" viewBox="0 0 90 90" version="1.1" xmlns="http://www.w3.org/2000/svg" xmlns:xlink="http://www.w3.org/1999/xlink">
    <!-- Generator: Sketch 54.1 (76490) - https://sketchapp.com -->
    <title>ratio-square</title>
    <desc>Created with Sketch.</desc>
    <g id="WP-Customizer" stroke="none" stroke-width="1" fill="none" fill-rule="evenodd">
        <g id="Categories-&amp;-Breadcrumb-Copy" transform="translate(-84.000000, -124.000000)" fill-rule="nonzero">
            <g id="ratio-square" transform="translate(84.000000, 124.000000)">
                <path d="M86.1,90 L3.9,90 C1.7,90 0,88.3 0,86.1 L0,3.9 C0,1.7 1.7,0 3.9,0 L86.2,0 C88.3,0 90,1.7 90,3.9 L90,86.2 C90,88.3 88.3,90 86.1,90 Z" id="Path" fill="#FFFFFF"></path>
                <g id="Image" transform="translate(13.000000, 13.000000)">
                    <path d="M62.7,64 L1.3,64 C0.6,64 0,63.1172414 0,61.7931034 L0,2.20689655 C0,0.882758621 0.6,0 1.3,0 L62.7,0 C63.4,0 64,0.882758621 64,2.20689655 L64,61.7931034 C64,63.1172414 63.4,64 62.7,64 Z" id="Path" fill="#9B9B9B"></path>
                    <path d="M33.6,53.6 L26.7,48.2 L0,60.1 L0,62.7 C0,63.3 0.6,63.7 1.3,63.7 L62.7,63.7 C63.4,63.7 64,63.3 64,62.7 L64,39 L33.6,53.6 Z" id="Path" fill="#4A4A4A"></path>
                    <circle id="Oval" fill="#F8F8F8" cx="8.5" cy="9.8" r="3"></circle>
                </g>
            </g>
        </g>
    </g>
</svg>