<?xml version="1.0" encoding="UTF-8"?>
<svg width="90px" height="90px" viewBox="0 0 90 90" version="1.1" xmlns="http://www.w3.org/2000/svg" xmlns:xlink="http://www.w3.org/1999/xlink">
    <!-- Generator: Sketch 54.1 (76490) - https://sketchapp.com -->
    <title>ratio-portrait</title>
    <desc>Created with Sketch.</desc>
    <g id="WP-Customizer" stroke="none" stroke-width="1" fill="none" fill-rule="evenodd">
        <g id="Categories-&amp;-Breadcrumb-Copy" transform="translate(-459.000000, -124.000000)" fill-rule="nonzero">
            <g id="ratio-portrait" transform="translate(459.000000, 124.000000)">
                <path d="M86.1,90 L3.9,90 C1.7,90 0,88.3 0,86.1 L0,3.9 C0,1.7 1.7,0 3.9,0 L86.2,0 C88.3,0 90,1.7 90,3.9 L90,86.2 C90,88.3 88.3,90 86.1,90 Z" id="Path" fill="#FFFFFF"></path>
                <g id="Image" transform="translate(20.000000, 10.000000)">
                    <path d="M49.9640625,71 L1.0359375,71 C0.478125,71 0,70.0206897 0,68.5517241 L0,2.44827586 C0,0.979310345 0.478125,0 1.0359375,0 L49.9640625,0 C50.521875,0 51,0.979310345 51,2.44827586 L51,68.5517241 C51,70.0206897 50.521875,71 49.9640625,71 Z" id="Path" fill="#9B9B9B"></path>
                    <path d="M26.775,60.6 L21.2765625,55.2 L0,67.1 L0,69.7 C0,70.3 0.478125,70.7 1.0359375,70.7 L49.9640625,70.7 C50.521875,70.7 51,70.3 51,69.7 L51,46 L26.775,60.6 Z" id="Path" fill="#4A4A4A"></path>
                    <circle id="Oval" fill="#F8F8F8" cx="15.5" cy="9.8" r="3"></circle>
                </g>
            </g>
        </g>
    </g>
</svg>