<?xml version="1.0" encoding="UTF-8"?>
<svg width="90px" height="90px" viewBox="0 0 90 90" version="1.1" xmlns="http://www.w3.org/2000/svg" xmlns:xlink="http://www.w3.org/1999/xlink">
    <!-- Generator: Sketch 54.1 (76490) - https://sketchapp.com -->
    <title>show-on-both copy</title>
    <desc>Created with Sketch.</desc>
    <g id="WP-Customizer" stroke="none" stroke-width="1" fill="none" fill-rule="evenodd">
        <g id="Show-on" transform="translate(-462.000000, -124.000000)">
            <g id="show-on-both-copy" transform="translate(462.000000, 124.000000)">
                <path d="M86.1,90 L3.9,90 C1.7,90 0,88.3 0,86.1 L0,3.9 C0,1.7 1.7,0 3.9,0 L86.2,0 C88.3,0 90,1.7 90,3.9 L90,86.2 C90,88.3 88.3,90 86.1,90 Z" id="Path" fill="#FFFFFF" fill-rule="nonzero"></path>
                <path d="M89.4312659,1.8256601 L1.8283183,89.4286077 C0.719599071,88.7510379 0,87.5313423 0,86.1 L0,3.9 C0,1.7 1.7,0 3.9,0 L86.2,0 C87.5651891,0 88.7613314,0.71844903 89.4312659,1.8256601 Z" id="Combined-Shape" fill="#E6E6E6"></path>
                <path d="M58.256926,35 L59,35 L59,37 L56.256926,37 L58.256926,35 Z" id="Combined-Shape" fill="#BFBFBF" fill-rule="nonzero"></path>
                <path d="M62.256926,31 L68,31 L68,33 L60.256926,33 L62.256926,31 Z" id="Combined-Shape" fill="#BFBFBF" fill-rule="nonzero"></path>
                <path d="M66.256926,27 L68,27 L68,29 L64.256926,29 L66.256926,27 Z" id="Combined-Shape" fill="#BFBFBF" fill-rule="nonzero"></path>
                <path d="M42.256926,51 L59,51 L59,53 L40.256926,53 L42.256926,51 Z" id="Combined-Shape" fill="#BFBFBF" fill-rule="nonzero"></path>
                <path d="M46.256926,47 L68,47 L68,49 L44.256926,49 L46.256926,47 Z" id="Combined-Shape" fill="#BFBFBF" fill-rule="nonzero"></path>
                <path d="M50.256926,43 L68,43 L68,45 L48.256926,45 L50.256926,43 Z" id="Combined-Shape" fill="#BFBFBF" fill-rule="nonzero"></path>
                <rect id="Rectangle-Copy-6" fill="#BFBFBF" fill-rule="nonzero" x="38" y="67" width="21" height="2"></rect>
                <rect id="Rectangle-Copy-7" fill="#BFBFBF" fill-rule="nonzero" x="38" y="63" width="30" height="2"></rect>
                <rect id="Rectangle-Copy-8" fill="#BFBFBF" fill-rule="nonzero" x="38" y="59" width="30" height="2"></rect>
                <path d="M24.256926,69 L33,60.256926 L33,68.6551724 C33,68.862069 32.90625,69 32.796875,69 L24.256926,69 Z" id="Combined-Shape" fill="#9B9B9B" fill-rule="nonzero"></path>
                <path d="M24.256926,69 L27.8676014,65.3893247 L30.6285714,64 L32.6,65.7419355 L33,65.5250424 L33,69 L24.256926,69 Z" id="Combined-Shape" fill="#4A4A4A" fill-rule="nonzero"></path>
                <rect id="Rectangle-Copy-6" fill="#BFBFBF" fill-rule="nonzero" x="38" y="83" width="21" height="2"></rect>
                <rect id="Rectangle-Copy-7" fill="#BFBFBF" fill-rule="nonzero" x="38" y="79" width="30" height="2"></rect>
                <rect id="Rectangle-Copy-8" fill="#BFBFBF" fill-rule="nonzero" x="38" y="75" width="30" height="2"></rect>
                <path d="M32.796875,85 L23.203125,85 C23.09375,85 23,84.862069 23,84.6551724 L23,75.3448276 C23,75.137931 23.09375,75 23.203125,75 L32.796875,75 C32.90625,75 33,75.137931 33,75.3448276 L33,84.6551724 C33,84.862069 32.90625,85 32.796875,85 Z" id="Path" fill="#9B9B9B" fill-rule="nonzero"></path>
                <path d="M33,81.5250424 L33,85 L23.3714286,85 C23.1714286,85 23,84.8709677 23,84.6774194 L23,83.8387097 L30.6285714,80 L32.6,81.7419355 L33,81.5250424 Z" id="Combined-Shape" fill="#4A4A4A" fill-rule="nonzero"></path>
                <ellipse id="Oval" fill="#F8F8F8" fill-rule="nonzero" cx="25.5" cy="78" rx="1" ry="1"></ellipse>
                <path d="M34.256926,57 L32.256926,59 L23,59 L23,57 L34.256926,57 Z" id="Combined-Shape" fill="#BFBFBF" fill-rule="nonzero"></path>
                <path d="M30.256926,61 L28.256926,63 L23,63 L23,61 L30.256926,61 Z" id="Combined-Shape" fill="#BFBFBF" fill-rule="nonzero"></path>
                <path d="M26.256926,65 L24.256926,67 L23,67 L23,65 L26.256926,65 Z" id="Combined-Shape" fill="#BFBFBF" fill-rule="nonzero"></path>
                <rect id="Rectangle" fill="#989898" fill-rule="nonzero" x="23.2" y="5" width="44.3" height="4"></rect>
                <rect id="Rectangle" fill="#989898" fill-rule="nonzero" x="23.2" y="11" width="19.4" height="4"></rect>
                <rect id="Rectangle" fill="#989898" fill-rule="nonzero" x="23.2" y="18" width="8.2" height="1.3"></rect>
                <rect id="Rectangle" fill="#989898" fill-rule="nonzero" x="33.8" y="18" width="8.2" height="1.3"></rect>
                <rect id="Rectangle" fill="#989898" fill-rule="nonzero" x="44.4" y="18" width="8.2" height="1.3"></rect>
                <rect id="Rectangle" fill="#989898" fill-rule="nonzero" x="55" y="18" width="8.2" height="1.3"></rect>
                <path d="M39.456926,51.8 L14.3,51.8 C13.6,51.8 13,51.4 13,50.8 L13,23.8 C13,23.2 13.6,22.8 14.3,22.8 L68.456926,22.8 L39.456926,51.8 Z" id="Combined-Shape" fill="#9B9B9B" fill-rule="nonzero"></path>
                <path d="M52.2892754,38.9676506 L39.456926,51.8 L14.3,51.8 C13.6,51.8 13,51.4 13,50.8 L13,48.2 L39.7,36.3 L46.6,41.7 L52.2892754,38.9676506 Z" id="Combined-Shape" fill="#4A4A4A" fill-rule="nonzero"></path>
                <circle id="Oval" fill="#F8F8F8" fill-rule="nonzero" cx="21.5" cy="30.8" r="3"></circle>
            </g>
        </g>
    </g>
</svg>