<?xml version="1.0" encoding="UTF-8"?>
<svg width="90px" height="90px" viewBox="0 0 90 90" version="1.1" xmlns="http://www.w3.org/2000/svg" xmlns:xlink="http://www.w3.org/1999/xlink">
    <!-- Generator: Sketch 54.1 (76490) - https://sketchapp.com -->
    <title>show-on-listing</title>
    <desc>Created with Sketch.</desc>
    <g id="WP-Customizer" stroke="none" stroke-width="1" fill="none" fill-rule="evenodd">
        <g id="Show-on" transform="translate(-84.000000, -124.000000)" fill-rule="nonzero">
            <g id="show-on-listing" transform="translate(84.000000, 124.000000)">
                <path d="M86.1,90 L3.9,90 C1.7,90 0,88.3 0,86.1 L0,3.9 C0,1.7 1.7,0 3.9,0 L86.2,0 C88.3,0 90,1.7 90,3.9 L90,86.2 C90,88.3 88.3,90 86.1,90 Z" id="Path" fill="#FFFFFF"></path>
                <g id="article" transform="translate(23.000000, 5.000000)">
                    <g id="Group-2" transform="translate(0.000000, 20.000000)">
                        <rect id="Rectangle-Copy-6" fill="#BFBFBF" x="15" y="8" width="21" height="2"></rect>
                        <rect id="Rectangle-Copy-7" fill="#BFBFBF" x="15" y="4" width="30" height="2"></rect>
                        <rect id="Rectangle-Copy-8" fill="#BFBFBF" x="15" y="0" width="30" height="2"></rect>
                        <g id="Group">
                            <path d="M9.796875,10 L0.203125,10 C0.09375,10 0,9.86206897 0,9.65517241 L0,0.344827586 C0,0.137931034 0.09375,0 0.203125,0 L9.796875,0 C9.90625,0 10,0.137931034 10,0.344827586 L10,9.65517241 C10,9.86206897 9.90625,10 9.796875,10 Z" id="Path" fill="#9B9B9B"></path>
                            <path d="M10,6.52504245 L10,10 L0.371428572,10 C0.171428572,10 0,9.87096774 0,9.67741935 L0,8.83870968 L7.62857144,5 L9.6,6.74193548 L10,6.52504245 Z" id="Combined-Shape" fill="#4A4A4A"></path>
                            <ellipse id="Oval" fill="#F8F8F8" cx="2.5" cy="3" rx="1" ry="1"></ellipse>
                        </g>
                    </g>
                    <g id="Group-2-Copy" transform="translate(0.000000, 36.000000)">
                        <rect id="Rectangle-Copy-6" fill="#BFBFBF" x="15" y="8" width="21" height="2"></rect>
                        <rect id="Rectangle-Copy-7" fill="#BFBFBF" x="15" y="4" width="30" height="2"></rect>
                        <rect id="Rectangle-Copy-8" fill="#BFBFBF" x="15" y="0" width="30" height="2"></rect>
                        <g id="Group">
                            <path d="M9.796875,10 L0.203125,10 C0.09375,10 0,9.86206897 0,9.65517241 L0,0.344827586 C0,0.137931034 0.09375,0 0.203125,0 L9.796875,0 C9.90625,0 10,0.137931034 10,0.344827586 L10,9.65517241 C10,9.86206897 9.90625,10 9.796875,10 Z" id="Path" fill="#9B9B9B"></path>
                            <path d="M10,6.52504245 L10,10 L0.371428572,10 C0.171428572,10 0,9.87096774 0,9.67741935 L0,8.83870968 L7.62857144,5 L9.6,6.74193548 L10,6.52504245 Z" id="Combined-Shape" fill="#4A4A4A"></path>
                            <ellipse id="Oval" fill="#F8F8F8" cx="2.5" cy="3" rx="1" ry="1"></ellipse>
                        </g>
                    </g>
                    <g id="Group-2-Copy-2" transform="translate(0.000000, 52.000000)">
                        <rect id="Rectangle-Copy-6" fill="#BFBFBF" x="15" y="8" width="21" height="2"></rect>
                        <rect id="Rectangle-Copy-7" fill="#BFBFBF" x="15" y="4" width="30" height="2"></rect>
                        <rect id="Rectangle-Copy-8" fill="#BFBFBF" x="15" y="0" width="30" height="2"></rect>
                        <g id="Group">
                            <path d="M9.796875,10 L0.203125,10 C0.09375,10 0,9.86206897 0,9.65517241 L0,0.344827586 C0,0.137931034 0.09375,0 0.203125,0 L9.796875,0 C9.90625,0 10,0.137931034 10,0.344827586 L10,9.65517241 C10,9.86206897 9.90625,10 9.796875,10 Z" id="Path" fill="#9B9B9B"></path>
                            <path d="M10,6.52504245 L10,10 L0.371428572,10 C0.171428572,10 0,9.87096774 0,9.67741935 L0,8.83870968 L7.62857144,5 L9.6,6.74193548 L10,6.52504245 Z" id="Combined-Shape" fill="#4A4A4A"></path>
                            <ellipse id="Oval" fill="#F8F8F8" cx="2.5" cy="3" rx="1" ry="1"></ellipse>
                        </g>
                    </g>
                    <g id="Group-2-Copy-3" transform="translate(0.000000, 68.000000)">
                        <rect id="Rectangle-Copy-6" fill="#BFBFBF" x="15" y="8" width="21" height="2"></rect>
                        <rect id="Rectangle-Copy-7" fill="#BFBFBF" x="15" y="4" width="30" height="2"></rect>
                        <rect id="Rectangle-Copy-8" fill="#BFBFBF" x="15" y="0" width="30" height="2"></rect>
                        <g id="Group">
                            <path d="M9.796875,10 L0.203125,10 C0.09375,10 0,9.86206897 0,9.65517241 L0,0.344827586 C0,0.137931034 0.09375,0 0.203125,0 L9.796875,0 C9.90625,0 10,0.137931034 10,0.344827586 L10,9.65517241 C10,9.86206897 9.90625,10 9.796875,10 Z" id="Path" fill="#9B9B9B"></path>
                            <path d="M10,6.52504245 L10,10 L0.371428572,10 C0.171428572,10 0,9.87096774 0,9.67741935 L0,8.83870968 L7.62857144,5 L9.6,6.74193548 L10,6.52504245 Z" id="Combined-Shape" fill="#4A4A4A"></path>
                            <ellipse id="Oval" fill="#F8F8F8" cx="2.5" cy="3" rx="1" ry="1"></ellipse>
                        </g>
                    </g>
                    <g id="Group-3" fill="#989898">
                        <g id="Group">
                            <rect id="Rectangle" x="0.2" y="0" width="44.3" height="4"></rect>
                            <rect id="Rectangle" x="0.2" y="6" width="19.4" height="4"></rect>
                        </g>
                        <g id="Group" transform="translate(0.000000, 13.000000)">
                            <rect id="Rectangle" x="0.2" y="0" width="8.2" height="1.3"></rect>
                            <rect id="Rectangle" x="10.8" y="0" width="8.2" height="1.3"></rect>
                            <rect id="Rectangle" x="21.4" y="0" width="8.2" height="1.3"></rect>
                            <rect id="Rectangle" x="32" y="0" width="8.2" height="1.3"></rect>
                        </g>
                    </g>
                </g>
            </g>
        </g>
    </g>
</svg>