<?xml version="1.0" encoding="UTF-8"?>
<svg width="90px" height="90px" viewBox="0 0 90 90" version="1.1" xmlns="http://www.w3.org/2000/svg" xmlns:xlink="http://www.w3.org/1999/xlink">
    <!-- Generator: Sketch 54.1 (76490) - https://sketchapp.com -->
    <title>container-small</title>
    <desc>Created with Sketch.</desc>
    <g id="WP-Customizer" stroke="none" stroke-width="1" fill="none" fill-rule="evenodd">
        <g id="Show-on" transform="translate(-210.000000, -124.000000)" fill-rule="nonzero">
            <g id="container-small" transform="translate(210.000000, 124.000000)">
                <path d="M86.1,90 L3.9,90 C1.7,90 0,88.3 0,86.1 L0,3.9 C0,1.7 1.7,0 3.9,0 L86.2,0 C88.3,0 90,1.7 90,3.9 L90,86.2 C90,88.3 88.3,90 86.1,90 Z" id="Path" fill="#FFFFFF"></path>
                <rect id="Rectangle" fill="#BFBFBF" x="23" y="57" width="45" height="2"></rect>
                <rect id="Rectangle" fill="#BFBFBF" x="23" y="61" width="45" height="2"></rect>
                <rect id="Rectangle" fill="#BFBFBF" x="23" y="65" width="45" height="2"></rect>
                <rect id="Rectangle" fill="#BFBFBF" x="23" y="69" width="45" height="2"></rect>
                <rect id="Rectangle" fill="#BFBFBF" x="23" y="73" width="45" height="2"></rect>
                <rect id="Rectangle" fill="#BFBFBF" x="23" y="77" width="45" height="2"></rect>
                <rect id="Rectangle" fill="#BFBFBF" x="23" y="81" width="29" height="2"></rect>
                <g id="Group-3" transform="translate(23.000000, 5.000000)" fill="#989898">
                    <g id="Group">
                        <rect id="Rectangle" x="0.2" y="0" width="44.3" height="4"></rect>
                        <rect id="Rectangle" x="0.2" y="6" width="19.4" height="4"></rect>
                    </g>
                    <g id="Group" transform="translate(0.000000, 13.000000)">
                        <rect id="Rectangle" x="0.2" y="0" width="8.2" height="1.3"></rect>
                        <rect id="Rectangle" x="10.8" y="0" width="8.2" height="1.3"></rect>
                        <rect id="Rectangle" x="21.4" y="0" width="8.2" height="1.3"></rect>
                        <rect id="Rectangle" x="32" y="0" width="8.2" height="1.3"></rect>
                    </g>
                </g>
                <g id="Group" transform="translate(13.000000, 22.000000)">
                    <path d="M62.7,29.8 L1.3,29.8 C0.6,29.8 0,29.4 0,28.8 L0,1.8 C0,1.2 0.6,0.8 1.3,0.8 L62.7,0.8 C63.4,0.8 64,1.2 64,1.8 L64,28.8 C64,29.4 63.4,29.8 62.7,29.8 Z" id="Path" fill="#9B9B9B"></path>
                    <path d="M33.6,19.7 L26.7,14.3 L0,26.2 L0,28.8 C0,29.4 0.6,29.8 1.3,29.8 L62.7,29.8 C63.4,29.8 64,29.4 64,28.8 L64,5.1 L33.6,19.7 Z" id="Path" fill="#4A4A4A"></path>
                    <circle id="Oval" fill="#F8F8F8" cx="8.5" cy="8.8" r="3"></circle>
                </g>
            </g>
        </g>
    </g>
</svg>