<?xml version="1.0" encoding="UTF-8"?>
<svg width="90px" height="90px" viewBox="0 0 90 90" version="1.1" xmlns="http://www.w3.org/2000/svg" xmlns:xlink="http://www.w3.org/1999/xlink">
    <!-- Generator: Sketch 54.1 (76490) - https://sketchapp.com -->
    <title>style-2</title>
    <desc>Created with Sketch.</desc>
    <g id="WP-Customizer" stroke="none" stroke-width="1" fill="none" fill-rule="evenodd">
        <g id="Profile" transform="translate(-205.000000, -121.000000)" fill-rule="nonzero">
            <g id="style-2" transform="translate(205.000000, 121.000000)">
                <path d="M86.1,90 L3.9,90 C1.7,90 0,88.3 0,86.1 L0,3.9 C0,1.7 1.7,0 3.9,0 L86.2,0 C88.3,0 90,1.7 90,3.9 L90,86.2 C90,88.3 88.3,90 86.1,90 Z" id="Path" fill="#FFFFFF"></path>
                <g id="article" opacity="0.5" transform="translate(23.000000, 43.000000)">
                    <g id="Group-2">
                        <rect id="Rectangle-Copy-6" fill="#BFBFBF" x="15" y="8" width="21" height="2"></rect>
                        <rect id="Rectangle-Copy-7" fill="#BFBFBF" x="15" y="4" width="30" height="2"></rect>
                        <rect id="Rectangle-Copy-8" fill="#BFBFBF" x="15" y="0" width="30" height="2"></rect>
                        <g id="Group">
                            <path d="M9.796875,10 L0.203125,10 C0.09375,10 0,9.86206897 0,9.65517241 L0,0.344827586 C0,0.137931034 0.09375,0 0.203125,0 L9.796875,0 C9.90625,0 10,0.137931034 10,0.344827586 L10,9.65517241 C10,9.86206897 9.90625,10 9.796875,10 Z" id="Path" fill="#9B9B9B"></path>
                            <path d="M10,6.52504245 L10,10 L0.371428572,10 C0.171428572,10 0,9.87096774 0,9.67741935 L0,8.83870968 L7.62857144,5 L9.6,6.74193548 L10,6.52504245 Z" id="Combined-Shape" fill="#4A4A4A"></path>
                            <ellipse id="Oval" fill="#F8F8F8" cx="2.5" cy="3" rx="1" ry="1"></ellipse>
                        </g>
                    </g>
                    <g id="Group-2-Copy" transform="translate(0.000000, 16.000000)">
                        <rect id="Rectangle-Copy-6" fill="#BFBFBF" x="15" y="8" width="21" height="2"></rect>
                        <rect id="Rectangle-Copy-7" fill="#BFBFBF" x="15" y="4" width="30" height="2"></rect>
                        <rect id="Rectangle-Copy-8" fill="#BFBFBF" x="15" y="0" width="30" height="2"></rect>
                        <g id="Group">
                            <path d="M9.796875,10 L0.203125,10 C0.09375,10 0,9.86206897 0,9.65517241 L0,0.344827586 C0,0.137931034 0.09375,0 0.203125,0 L9.796875,0 C9.90625,0 10,0.137931034 10,0.344827586 L10,9.65517241 C10,9.86206897 9.90625,10 9.796875,10 Z" id="Path" fill="#9B9B9B"></path>
                            <path d="M10,6.52504245 L10,10 L0.371428572,10 C0.171428572,10 0,9.87096774 0,9.67741935 L0,8.83870968 L7.62857144,5 L9.6,6.74193548 L10,6.52504245 Z" id="Combined-Shape" fill="#4A4A4A"></path>
                            <ellipse id="Oval" fill="#F8F8F8" cx="2.5" cy="3" rx="1" ry="1"></ellipse>
                        </g>
                    </g>
                    <g id="Group-2-Copy-2" transform="translate(0.000000, 32.000000)">
                        <rect id="Rectangle-Copy-6" fill="#BFBFBF" x="15" y="8" width="21" height="2"></rect>
                        <rect id="Rectangle-Copy-7" fill="#BFBFBF" x="15" y="4" width="30" height="2"></rect>
                        <rect id="Rectangle-Copy-8" fill="#BFBFBF" x="15" y="0" width="30" height="2"></rect>
                        <g id="Group">
                            <path d="M9.796875,10 L0.203125,10 C0.09375,10 0,9.86206897 0,9.65517241 L0,0.344827586 C0,0.137931034 0.09375,0 0.203125,0 L9.796875,0 C9.90625,0 10,0.137931034 10,0.344827586 L10,9.65517241 C10,9.86206897 9.90625,10 9.796875,10 Z" id="Path" fill="#9B9B9B"></path>
                            <path d="M10,6.52504245 L10,10 L0.371428572,10 C0.171428572,10 0,9.87096774 0,9.67741935 L0,8.83870968 L7.62857144,5 L9.6,6.74193548 L10,6.52504245 Z" id="Combined-Shape" fill="#4A4A4A"></path>
                            <ellipse id="Oval" fill="#F8F8F8" cx="2.5" cy="3" rx="1" ry="1"></ellipse>
                        </g>
                    </g>
                </g>
                <g id="Group-2" transform="translate(23.000000, 10.000000)">
                    <circle id="Oval" fill="#4A4A4A" cx="22.5" cy="3.5" r="3.5"></circle>
                    <rect id="Rectangle" fill="#9B9B9B" x="0" y="16" width="45" height="2"></rect>
                    <rect id="Rectangle-Copy-2" fill="#9B9B9B" x="11" y="20" width="22" height="2"></rect>
                    <rect id="Rectangle" fill="#9B9B9B" x="18" y="12" width="9" height="2"></rect>
                    <g id="Group-Copy-2" transform="translate(15.000000, 9.000000)" fill="#9B9B9B">
                        <rect id="Rectangle" x="0" y="0" width="3" height="1"></rect>
                        <rect id="Rectangle" x="4" y="0" width="3" height="1"></rect>
                        <rect id="Rectangle" x="8" y="0" width="3" height="1"></rect>
                        <rect id="Rectangle" x="12" y="0" width="3" height="1"></rect>
                    </g>
                </g>
            </g>
        </g>
    </g>
</svg>