<?xml version="1.0" encoding="UTF-8"?>
<svg width="90px" height="90px" viewBox="0 0 90 90" version="1.1" xmlns="http://www.w3.org/2000/svg" xmlns:xlink="http://www.w3.org/1999/xlink">
    <!-- Generator: Sketch 54.1 (76490) - https://sketchapp.com -->
    <title>title-below-image</title>
    <desc>Created with Sketch.</desc>
    <defs>
        <path d="M86.1,90 L3.9,90 C1.7,90 0,88.3 0,86.1 L0,3.9 C0,1.7 1.7,0 3.9,0 L86.2,0 C88.3,0 90,1.7 90,3.9 L90,86.2 C90,88.3 88.3,90 86.1,90 Z" id="path-1"></path>
    </defs>
    <g id="WP-Customizer" stroke="none" stroke-width="1" fill="none" fill-rule="evenodd">
        <g id="Title" transform="translate(-447.000000, -124.000000)">
            <g id="title-below-image" transform="translate(447.000000, 124.000000)">
                <mask id="mask-2" fill="white">
                    <use xlink:href="#path-1"></use>
                </mask>
                <use id="Path" fill="#FFFFFF" fill-rule="nonzero" xlink:href="#path-1"></use>
                <g id="Group-5" mask="url(#mask-2)" fill-rule="nonzero">
                    <g transform="translate(-0.000000, -16.300000)" id="Path">
                        <path d="M90,59.9 L-7.81597009e-14,59.9 L-7.81597009e-14,20.2 C-7.81597009e-14,18 -7.81597009e-14,17.3786133 -7.81597009e-14,16.3 L90,16.3 C90,17.2833984 90,18 90,20.2 L90,59.9 Z" fill="#9B9B9B"></path>
                        <polygon fill="#4A4A4A" points="90 59.9 90 20.4 47.2 45.1 37.6 36 0 56 0 59.9"></polygon>
                    </g>
                </g>
                <rect id="Rectangle" fill="#BFBFBF" fill-rule="nonzero" mask="url(#mask-2)" x="23" y="72" width="45" height="2"></rect>
                <rect id="Rectangle" fill="#BFBFBF" fill-rule="nonzero" mask="url(#mask-2)" x="23" y="76" width="45" height="2"></rect>
                <rect id="Rectangle" fill="#BFBFBF" fill-rule="nonzero" mask="url(#mask-2)" x="23" y="80" width="31" height="2"></rect>
                <rect id="Rectangle" fill="#4A4A4A" fill-rule="nonzero" mask="url(#mask-2)" x="23" y="57" width="45" height="4"></rect>
                <rect id="Rectangle" fill="#4A4A4A" fill-rule="nonzero" mask="url(#mask-2)" x="23" y="50" width="24.4" height="4"></rect>
                <g id="Group" mask="url(#mask-2)" fill="#BFBFBF" fill-rule="nonzero">
                    <g transform="translate(23.000000, 64.000000)" id="Rectangle">
                        <rect x="0" y="0" width="8" height="2"></rect>
                        <rect x="10" y="0" width="8" height="2"></rect>
                        <rect x="20" y="0" width="8" height="2"></rect>
                        <rect x="30" y="0" width="8" height="2"></rect>
                    </g>
                </g>
            </g>
        </g>
    </g>
</svg>