<?xml version="1.0" encoding="UTF-8"?>
<svg width="90px" height="90px" viewBox="0 0 90 90" version="1.1" xmlns="http://www.w3.org/2000/svg" xmlns:xlink="http://www.w3.org/1999/xlink">
    <!-- Generator: Sketch 54.1 (76490) - https://sketchapp.com -->
    <title>mp-category-breadcrumb copy 2</title>
    <desc>Created with Sketch.</desc>
    <g id="WP-Customizer" stroke="none" stroke-width="1" fill="none" fill-rule="evenodd">
        <g id="Title" transform="translate(-326.000000, -124.000000)" fill-rule="nonzero">
            <g id="mp-category-breadcrumb-copy-2" transform="translate(326.000000, 124.000000)">
                <path d="M86.1,90 L3.9,90 C1.7,90 0,88.3 0,86.1 L0,3.9 C0,1.7 1.7,0 3.9,0 L86.2,0 C88.3,0 90,1.7 90,3.9 L90,86.2 C90,88.3 88.3,90 86.1,90 Z" id="Path" fill="#FFFFFF"></path>
                <g id="Group-2" transform="translate(40.000000, 8.000000)">
                    <path d="M45,21.8 L-7.81597009e-14,21.8 L-7.81597009e-14,1.95 C-7.81597009e-14,0.85 -7.81597009e-14,0.539306641 -7.81597009e-14,-5.32907052e-14 L45,-5.32907052e-14 C45,0.491699219 45,0.85 45,1.95 L45,21.8 Z" id="Path" fill="#9B9B9B"></path>
                    <polygon id="Path" fill="#4A4A4A" points="45 21.8 45 2.05 23.6 14.4 18.8 9.85 0 19.85 0 21.8"></polygon>
                </g>
                <rect id="Rectangle" fill="#BFBFBF" x="23" y="48" width="45" height="2"></rect>
                <rect id="Rectangle-Copy" fill="#BFBFBF" x="23" y="44" width="45" height="2"></rect>
                <rect id="Rectangle-Copy-2" fill="#BFBFBF" x="23" y="40" width="45" height="2"></rect>
                <rect id="Rectangle-Copy-3" fill="#BFBFBF" x="23" y="36" width="45" height="2"></rect>
                <rect id="Rectangle" fill="#BFBFBF" x="23" y="52" width="45" height="2"></rect>
                <rect id="Rectangle" fill="#BFBFBF" x="23" y="56" width="45" height="2"></rect>
                <rect id="Rectangle" fill="#BFBFBF" x="23" y="60" width="45" height="2"></rect>
                <rect id="Rectangle" fill="#BFBFBF" x="23" y="64" width="45" height="2"></rect>
                <rect id="Rectangle" fill="#BFBFBF" x="23" y="68" width="45" height="2"></rect>
                <rect id="Rectangle" fill="#BFBFBF" x="23" y="72" width="45" height="2"></rect>
                <rect id="Rectangle" fill="#BFBFBF" x="23" y="76" width="45" height="2"></rect>
                <rect id="Rectangle" fill="#BFBFBF" x="23" y="80" width="31" height="2"></rect>
                <rect id="Rectangle" fill="#4A4A4A" x="5" y="18" width="28" height="4"></rect>
                <rect id="Rectangle" fill="#4A4A4A" x="5" y="11" width="15" height="4"></rect>
                <g id="Group" transform="translate(5.000000, 25.000000)" fill="#BFBFBF">
                    <rect id="Rectangle" x="0" y="0" width="5" height="2"></rect>
                    <rect id="Rectangle" x="6" y="0" width="5" height="2"></rect>
                    <rect id="Rectangle" x="13" y="0" width="5" height="2"></rect>
                    <rect id="Rectangle" x="19" y="0" width="5" height="2"></rect>
                </g>
            </g>
        </g>
    </g>
</svg>