<svg xmlns="http://www.w3.org/2000/svg" viewBox="0 0 24 24"><defs><style>.cls-1{fill:#0274e6;}</style></defs><g id="Layer_2" data-name="Layer 2"><g id="Layer_1-2" data-name="Layer 1"><g id="progress_bar_circle"><path class="cls-1" d="M14.5,7.5a2,2,0,1,0,2,2A2,2,0,0,0,14.5,7.5Zm0,3a1,1,0,1,1,1-1A1,1,0,0,1,14.5,10.5Z"/><path class="cls-1" d="M9.5,12.5a2,2,0,1,0,2,2A2,2,0,0,0,9.5,12.5Zm0,3a1,1,0,1,1,1-1A1,1,0,0,1,9.5,15.5Z"/><rect class="cls-1" x="11.51" y="6.48" width="0.98" height="11.04" transform="translate(-4.97 12) rotate(-45)"/><path class="cls-1" d="M12,0A12,12,0,1,0,24,12,12,12,0,0,0,12,0ZM3,12H1A11,11,0,0,1,12,1V3A9,9,0,0,0,3,12Zm9,8a8,8,0,1,1,8-8A8,8,0,0,1,12,20Z"/></g></g></g></svg>