<svg xmlns="http://www.w3.org/2000/svg" viewBox="0 0 22 21"><defs><style>.cls-1{fill:#0274e6;}</style></defs><g id="Layer_2" data-name="Layer 2"><g id="Layer_1-2" data-name="Layer 1"><g id="custom_add_to_cart"><path class="cls-1" d="M17.5,1V6.9l1.71-1.71L20,4.42l0,0,.59.61L18.8,6.83,17,8.6,15.2,6.83,13.4,5.06,14,4.45l0,0,.77.77L16.5,6.9V1h1m1-1h-3V4.49L14,3,12,5.09,17,10l5-4.91L20,3,18.5,4.49V0Z"/><path class="cls-1" d="M15.69,17H4.75l-.31-2.5H17.51L18,11H17l-.32,2.5H15.5V9.93L14.5,9h0v4.5h-2V9h-1v4.5h-2V9h-1v4.5h-2V9h-1v4.5H4.32c-.11-.83-.21-1.67-.32-2.5-.19-1.5-.37-3-.56-4.5H12l-1-1H3.31L2.94,3H0V4H2.06q.84,6.57,1.7,13.15A2,2,0,0,0,2.5,19a2,2,0,0,0,2,2,2.09,2.09,0,0,0,2-2,1.92,1.92,0,0,0-.28-1H14a2,2,0,0,0-.28,1,2.06,2.06,0,0,0,2,2,2,2,0,1,0,0-4ZM4.9,19.91a1.07,1.07,0,0,1-.41.09,1,1,0,0,1,0-2,1.07,1.07,0,0,1,.41.09,1,1,0,0,1,0,1.82Zm11.2,0a1.16,1.16,0,0,1-.41.09,1,1,0,1,1,0-2,1.16,1.16,0,0,1,.41.09,1,1,0,0,1,0,1.82Z"/></g></g></g></svg>