<svg xmlns="http://www.w3.org/2000/svg" viewBox="0 0 24 15"><defs><style>.cls-1{fill:#0274e6;}</style></defs><g id="Layer_2" data-name="Layer 2"><g id="Layer_1-2" data-name="Layer 1"><g id="progress_bar_line"><path class="cls-1" d="M15,11H0v4H24V11Zm8,3H15V12h8Z"/><path class="cls-1" d="M14.5,1a1,1,0,1,1-1,1,1,1,0,0,1,1-1m0-1a2,2,0,1,0,2,2,2,2,0,0,0-2-2Z"/><path class="cls-1" d="M9.5,6a1,1,0,1,1-1,1,1,1,0,0,1,1-1m0-1a2,2,0,1,0,2,2,2,2,0,0,0-2-2Z"/><rect class="cls-1" x="11.51" y="-1.02" width="0.98" height="11.04" transform="translate(0.33 9.8) rotate(-45)"/></g></g></g></svg>