<svg xmlns="http://www.w3.org/2000/svg" viewBox="0 0 23 19"><defs><style>.cls-1{fill:#0274e6;}</style></defs><g id="Layer_2" data-name="Layer 2"><g id="Layer_1-2" data-name="Layer 1"><g id="add_to_cart"><path class="cls-1" d="M20.71,2.29V0H17.29V2.29H15V5.71h2.29V8h3.42V5.71H23V2.29ZM22,4.71H19.71V7H18.29V4.71H16V3.29h2.29V1h1.42V3.29H22Z"/><path class="cls-1" d="M18,9H17c-.11.83-.21,1.67-.32,2.5H15.5V7h-1v4.5h-2V7h-1v4.5h-2V7h-1v4.5h-2V7h-1v4.5H4.31l-.87-7H14v-1H3.31L2.94,1H0V2H2.05L3.76,15.15A2,2,0,0,0,2.5,17a2,2,0,1,0,3.72-1H14a2,2,0,1,0,1.73-1H4.75l-.31-2.5H17.56C17.71,11.33,17.85,10.17,18,9Zm-2.31,7a1,1,0,1,1-1,1A1,1,0,0,1,15.69,16ZM4.5,16a1,1,0,1,1-1,1A1,1,0,0,1,4.5,16Z"/></g></g></g></svg>