<svg xmlns="http://www.w3.org/2000/svg" viewBox="0 0 24 18"><defs><style>.cls-1{fill:#0274e6;}</style></defs><g id="Layer_2" data-name="Layer 2"><g id="Layer_1-2" data-name="Layer 1"><g id="progress_bar_semicircle"><path class="cls-1" d="M14.5,9a2,2,0,1,0,2,2A2,2,0,0,0,14.5,9Zm0,3a1,1,0,1,1,1-1A1,1,0,0,1,14.5,12Z"/><path class="cls-1" d="M9.5,14a2,2,0,1,0,2,2A2,2,0,0,0,9.5,14Zm0,3a1,1,0,1,1,1-1A1,1,0,0,1,9.5,17Z"/><rect class="cls-1" x="11.51" y="7.98" width="0.98" height="11.04" transform="translate(-6.03 12.44) rotate(-45)"/><path class="cls-1" d="M24,11.5c0-.17,0-.33,0-.5A12,12,0,0,0,.07,11c0,.17,0,.33,0,.5s0,.33,0,.5H4a4.19,4.19,0,0,1,0-.5c0-.17,0-.33,0-.5a8,8,0,0,1,15.84,0c0,.17,0,.33,0,.5a4.19,4.19,0,0,1,0,.5h4C24,11.83,24,11.67,24,11.5Zm-3-.5a9,9,0,0,0-3.74-6.34c.48-.48,1-1,1.43-1.43A11,11,0,0,1,22.93,11Z"/></g></g></g></svg>