<svg xmlns="http://www.w3.org/2000/svg" viewBox="0 0 28 24"><g id="sliper"><path fill="#0274e6" d="M26,1a1,1,0,0,1,1,1V22a1,1,0,0,1-1,1H2a1,1,0,0,1-1-1V2A1,1,0,0,1,2,1H26m0-1H2A2,2,0,0,0,0,2V22a2,2,0,0,0,2,2H26a2,2,0,0,0,2-2V2a2,2,0,0,0-2-2Z"/><path fill="#0274e6" d="M6.85,8.82a.5.5,0,0,1,0,.71L4.38,12l2.47,2.47a.5.5,0,0,1-.71.71L3.32,12.35a.48.48,0,0,1,0-.7L6.14,8.82A.5.5,0,0,1,6.85,8.82Zm15,6.36,2.82-2.83a.48.48,0,0,0,0-.7L21.86,8.82a.5.5,0,0,0-.71.71L23.62,12l-2.47,2.47a.5.5,0,0,0,.71.71Z"/><path fill="#0274e6" d="M9.5,20h-1a.5.5,0,0,1-.5-.5H8a.5.5,0,0,1,.5-.5h1a.5.5,0,0,1,.5.5h0A.5.5,0,0,1,9.5,20Zm4.5-.5h0a.5.5,0,0,0-.5-.5h-1a.5.5,0,0,0-.5.5h0a.5.5,0,0,0,.5.5h1A.5.5,0,0,0,14,19.5Zm6,0h0a.5.5,0,0,0-.5-.5h-3a.5.5,0,0,0-.5.5h0a.5.5,0,0,0,.5.5h3A.5.5,0,0,0,20,19.5Z"/></g></svg>