<svg xmlns="http://www.w3.org/2000/svg" viewBox="0 0 24 20.75"><g id="open_weather"><path fill="#0274e6" d="M9,13H8.5A4.71,4.71,0,0,1,4,8.5,4.55,4.55,0,0,1,8.48,4H9V3L8.48,3a5.5,5.5,0,0,0,0,11H9Z"/><polygon fill="#0274e6" points="9 0.75 9 0 8 0 8 2 9 2 9 0.75"/><rect fill="#0274e6" x="2.53" y="2.06" width="0.94" height="1.89" transform="translate(-1.24 3) rotate(-45)"/><rect fill="#0274e6" y="8" width="2" height="1"/><rect fill="#0274e6" x="2.06" y="13.53" width="1.89" height="0.94" transform="translate(-9.02 6.22) rotate(-45)"/><path fill="#0274e6" d="M22.62,6.27a4.63,4.63,0,0,0-2-1.12A4.69,4.69,0,0,0,19.34,5a3.48,3.48,0,0,0-1-2A3.52,3.52,0,0,0,16,2V3h0a2.55,2.55,0,0,1,1.48.53,2.56,2.56,0,0,1,.82,1.33A3,3,0,0,1,18.41,6h.9a3.84,3.84,0,0,1,2.77,1.18A3.38,3.38,0,0,1,23,9.5a3.48,3.48,0,0,1-1.13,2.4A4,4,0,0,1,19.23,13H16v1h3.23a4.71,4.71,0,0,0,3.46-1.35A4.57,4.57,0,0,0,24,9.5,4.72,4.72,0,0,0,22.62,6.27Z"/><path fill="#0274e6" d="M16.75,15l1.5,4h1l-1.5-4Z"/><path fill="#0274e6" d="M19.75,15l1.5,4h1l-1.5-4Z"/><path fill="#0274e6" d="M15,13.5V.25H10v14a3.75,3.75,0,1,0,5,0Zm.25,3.5a2.75,2.75,0,0,1-5.5,0,2.7,2.7,0,0,1,.92-2l.33-.3V1.25h3V14.67l.33.3A2.7,2.7,0,0,1,15.25,17Z"/><path fill="#0274e6" d="M13,15.34V2.25H12V15.34a1.75,1.75,0,1,0,1,0Z"/></g></svg>