<svg xmlns="http://www.w3.org/2000/svg" viewBox="0 0 23 19"><rect fill="#0274e6" x="3" y="6" width="10" height="1"/><rect fill="#0274e6" x="3" y="9" width="7" height="1"/><rect fill="#0274e6" x="3" y="12" width="12" height="1"/><path fill="#0274e6" d="M19,15H6.72l-.23.14L4,16.64l-1,.59V15H1V4H13a5.51,5.51,0,0,1,.18-1H0V16H2v3l5-3H20V9.79A5.51,5.51,0,0,1,19,10Z"/><path fill="#0274e6" d="M18.5,0A4.5,4.5,0,1,0,23,4.5,4.51,4.51,0,0,0,18.5,0Zm0,1A3.5,3.5,0,1,1,15,4.5,3.5,3.5,0,0,1,18.5,1Z"/><polygon fill="#0274e6" points="18.25 6 20.75 3.75 20.1 3 18.21 4.7 16.85 3.61 16.25 4.4 18.25 6"/></svg>