<svg xmlns="http://www.w3.org/2000/svg" viewBox="0 0 20 20"><g id="masked_video"><polygon fill="#0274e6" points="2.5 20 0 20 0 17.5 1 17.5 1 19 2.5 19 2.5 20"/><path fill="#0274e6" d="M14.85,20H11.32V19h3.53ZM8.68,20H5.15V19H8.68Z"/><polygon fill="#0274e6" points="20 20 17.5 20 17.5 19 19 19 19 17.5 20 17.5 20 20"/><path fill="#0274e6" d="M20,14.85H19V11.32h1Zm0-6.17H19V5.15h1Z"/><polygon fill="#0274e6" points="20 2.5 19 2.5 19 1 17.5 1 17.5 0 20 0 20 2.5"/><path fill="#0274e6" d="M14.85,1H11.32V0h3.53ZM8.68,1H5.15V0H8.68Z"/><polygon fill="#0274e6" points="1 2.5 0 2.5 0 0 2.5 0 2.5 1 1 1 1 2.5"/><path fill="#0274e6" d="M1,14.85H0V11.32H1ZM1,8.68H0V5.15H1Z"/><path fill="#0274e6" d="M6.47,15.35V4.65L16,10Zm1-9v7.3L14,10Z"/></g></svg>