<svg xmlns="http://www.w3.org/2000/svg" viewBox="0 0 22 22"><g id="business_hours"><rect fill="#0274e6" x="10.5" y="16" width="1" height="4"/><rect fill="#0274e6" x="10.5" y="2" width="1" height="4"/><rect fill="#0274e6" x="2" y="10.5" width="4" height="1"/><rect fill="#0274e6" x="16" y="10.5" width="4" height="1"/><path fill="#0274e6" d="M14.67,6.5l-3.9,4H7.5v1h3.83L15.5,7.22Z"/><path fill="#0274e6" d="M21,10.5V11a10.27,10.27,0,0,1-3.22,7.41A10.16,10.16,0,0,1,11.05,21a10.27,10.27,0,0,1-7-2.81A10.33,10.33,0,0,1,1,11,10.37,10.37,0,0,1,4.12,3.78,10.31,10.31,0,0,1,11.05,1a9.89,9.89,0,0,1,2,.21A10.21,10.21,0,0,1,17.18,3.1H15.5v1H19V.6H18V2.47A11.22,11.22,0,0,0,13.71.32,11,11,0,0,0,11.05,0,11.3,11.3,0,0,0,3.13,3.35,11.34,11.34,0,0,0,0,11a11.28,11.28,0,0,0,3.38,7.9A11.27,11.27,0,0,0,11.05,22a11.17,11.17,0,0,0,7.41-2.86A11.29,11.29,0,0,0,22,11v-.5Z"/><rect fill="#0274e6" x="4.78" y="4.71" width="0.92" height="1.91" transform="translate(-2.47 5.37) rotate(-45)"/><rect fill="#0274e6" x="15.78" y="15.71" width="0.92" height="1.91" transform="translate(-7.03 16.37) rotate(-45)"/><rect fill="#0274e6" x="4.29" y="16.21" width="1.91" height="0.92" transform="translate(-10.25 8.59) rotate(-45)"/></g></svg>