<svg style="position: absolute; width: 0; height: 0; overflow: hidden;" version="1.1" xmlns="http://www.w3.org/2000/svg" xmlns:xlink="http://www.w3.org/1999/xlink">
<defs>
<symbol id="icon-search" viewBox="0 0 30 32">
<path class="path1" d="M20.571 14.857q0-3.304-2.348-5.652t-5.652-2.348-5.652 2.348-2.348 5.652 2.348 5.652 5.652 2.348 5.652-2.348 2.348-5.652zM29.714 29.714q0 0.929-0.679 1.607t-1.607 0.679q-0.964 0-1.607-0.679l-6.125-6.107q-3.196 2.214-7.125 2.214-2.554 0-4.884-0.991t-4.018-2.679-2.679-4.018-0.991-4.884 0.991-4.884 2.679-4.018 4.018-2.679 4.884-0.991 4.884 0.991 4.018 2.679 2.679 4.018 0.991 4.884q0 3.929-2.214 7.125l6.125 6.125q0.661 0.661 0.661 1.607z"></path>
</symbol>
<symbol id="icon-twitter" viewBox="0 0 30 32">
<path class="path1" d="M28.929 7.286q-1.196 1.75-2.893 2.982 0.018 0.25 0.018 0.75 0 2.321-0.679 4.634t-2.063 4.437-3.295 3.759-4.607 2.607-5.768 0.973q-4.839 0-8.857-2.589 0.625 0.071 1.393 0.071 4.018 0 7.161-2.464-1.875-0.036-3.357-1.152t-2.036-2.848q0.589 0.089 1.089 0.089 0.768 0 1.518-0.196-2-0.411-3.313-1.991t-1.313-3.67v-0.071q1.214 0.679 2.607 0.732-1.179-0.786-1.875-2.054t-0.696-2.75q0-1.571 0.786-2.911 2.161 2.661 5.259 4.259t6.634 1.777q-0.143-0.679-0.143-1.321 0-2.393 1.688-4.080t4.080-1.688q2.5 0 4.214 1.821 1.946-0.375 3.661-1.393-0.661 2.054-2.536 3.179 1.661-0.179 3.321-0.893z"></path>
</symbol>
<symbol id="icon-bars" viewBox="0 0 24 24">
<path d="M5,21 L5,1 L7,1 L7,2 L21.1247446,2 L18.1259893,7.99991055 L21.126034,14 L7,14 L7,21 L8,21 L8,23 L4,23 L4,21 L5,21 Z M7,12 L17.889966,12 L15.8900107,8.00008945 L17.8892554,4 L7,4 L7,12 Z"/>
</symbol>
<symbol id="icon-chain" viewBox="0 0 30 32">
<path class="path1" d="M26 21.714q0-0.714-0.5-1.214l-3.714-3.714q-0.5-0.5-1.214-0.5-0.75 0-1.286 0.571 0.054 0.054 0.339 0.33t0.384 0.384 0.268 0.339 0.232 0.455 0.063 0.491q0 0.714-0.5 1.214t-1.214 0.5q-0.268 0-0.491-0.063t-0.455-0.232-0.339-0.268-0.384-0.384-0.33-0.339q-0.589 0.554-0.589 1.304 0 0.714 0.5 1.214l3.679 3.696q0.482 0.482 1.214 0.482 0.714 0 1.214-0.464l2.625-2.607q0.5-0.5 0.5-1.196zM13.446 9.125q0-0.714-0.5-1.214l-3.679-3.696q-0.5-0.5-1.214-0.5-0.696 0-1.214 0.482l-2.625 2.607q-0.5 0.5-0.5 1.196 0 0.714 0.5 1.214l3.714 3.714q0.482 0.482 1.214 0.482 0.75 0 1.286-0.554-0.054-0.054-0.339-0.33t-0.384-0.384-0.268-0.339-0.232-0.455-0.063-0.491q0-0.714 0.5-1.214t1.214-0.5q0.268 0 0.491 0.063t0.455 0.232 0.339 0.268 0.384 0.384 0.33 0.339q0.589-0.554 0.589-1.304zM29.429 21.714q0 2.143-1.518 3.625l-2.625 2.607q-1.482 1.482-3.625 1.482-2.161 0-3.643-1.518l-3.679-3.696q-1.482-1.482-1.482-3.625 0-2.196 1.571-3.732l-1.571-1.571q-1.536 1.571-3.714 1.571-2.143 0-3.643-1.5l-3.714-3.714q-1.5-1.5-1.5-3.643t1.518-3.625l2.625-2.607q1.482-1.482 3.625-1.482 2.161 0 3.643 1.518l3.679 3.696q1.482 1.482 1.482 3.625 0 2.196-1.571 3.732l1.571 1.571q1.536-1.571 3.714-1.571 2.143 0 3.643 1.5l3.714 3.714q1.5 1.5 1.5 3.643z"></path>
</symbol>
<symbol id="icon-thumb-tack" viewBox="0 0 21 32">
<path class="path1" d="M8.571 15.429v-8q0-0.25-0.161-0.411t-0.411-0.161-0.411 0.161-0.161 0.411v8q0 0.25 0.161 0.411t0.411 0.161 0.411-0.161 0.161-0.411zM20.571 21.714q0 0.464-0.339 0.804t-0.804 0.339h-7.661l-0.911 8.625q-0.036 0.214-0.188 0.366t-0.366 0.152h-0.018q-0.482 0-0.571-0.482l-1.357-8.661h-7.214q-0.464 0-0.804-0.339t-0.339-0.804q0-2.196 1.402-3.955t3.17-1.759v-9.143q-0.929 0-1.607-0.679t-0.679-1.607 0.679-1.607 1.607-0.679h11.429q0.929 0 1.607 0.679t0.679 1.607-0.679 1.607-1.607 0.679v9.143q1.768 0 3.17 1.759t1.402 3.955z"></path>
</symbol>
<symbol id="icon-time" viewBox="0 0 24 24">
  <path class="path1" d="M12,23 C5.92486775,23 1,18.0751322 1,12 C1,5.92486775 5.92486775,1 12,1 C18.0751322,1 23,5.92486775 23,12 C23,18.0751322 18.0751322,23 12,23 Z M12,21 C16.9705627,21 21,16.9705627 21,12 C21,7.02943725 16.9705627,3 12,3 C7.02943725,3 3,7.02943725 3,12 C3,16.9705627 7.02943725,21 12,21 Z M13,11 L17,11 L17,13 L11,13 L11,6 L13,6 L13,11 Z"/>
</symbol>
<symbol id="icon-tags" viewBox="0 0 482.4 482.4">
<path d="M458.6,23.786c-14.5-14.5-34.5-22.9-56.3-23.7c-20.7-0.8-41.9,5-61.1,16.8c-8.5,5.2-11.2,16.3-6,24.7
	c5.2,8.5,16.3,11.2,24.7,6c26.1-16,56.2-15.3,73.2,1.7c10,10,14.6,24.5,12.9,40.8c-1.8,17.7-10.5,35.1-24.5,49.1
	s-31.5,22.7-49.1,24.5c-16.3,1.6-30.8-3-40.8-12.9c-6.5-6.5-15.1-10-24.2-10c-9.2,0-17.8,3.6-24.3,10c-6.5,6.5-10,15.1-10,24.3
	s3.6,17.8,10.1,24.3s15.1,10,24.2,10c9.2,0,17.8-3.6,24.3-10c1.4-1.4,2.7-2.9,3.8-4.5c9.5,3.4,19.7,5.2,30.5,5.2
	c3.3,0,6.7-0.2,10.1-0.5c0.3,0,0.6-0.1,0.9-0.1l3.1,44.9c0.7,10.2-3.1,20.2-10.3,27.5l-167.7,167.5c-9.4,9.4-24.8,9.4-34.2,0
	L43,314.486c-4.6-4.6-7.1-10.7-7.1-17.1c0-6.5,2.5-12.5,7.1-17.1l167.6-167.6c7.2-7.2,17.2-11,27.4-10.3l148.9,9.9
	c9.9,0.7,18.5-6.8,19.2-16.8c0.7-9.9-6.8-18.5-16.8-19.2l-148.9-9.9c-20.5-1.4-40.7,6.2-55.2,20.8l-167.6,167.6
	c-11.4,11.4-17.6,26.5-17.6,42.6c0,16.1,6.3,31.2,17.6,42.6l124.8,124.8c11.7,11.7,27.2,17.6,42.6,17.6c15.4,0,30.8-5.9,42.6-17.6
	l167.6-167.6c14.6-14.6,22.2-34.8,20.8-55.4l-3.6-52.6c12.6-6,24.3-14.3,34.7-24.6c19.8-19.8,32.2-45,34.8-70.9
	C484.6,66.386,476.3,41.586,458.6,23.786z"/>
</symbol>
<symbol id="icon-home" viewBox="-51 0 512 512"><path d="m205.117188 0c-113.101563 0-205.117188 92.015625-205.117188 205.117188v5.667968c0 57.199219 32.792969 123.855469 97.472656 198.113282 46.886719 53.832031 93.121094 91.367187 95.066406 92.941406l12.578126 10.160156 12.574218-10.160156c1.945313-1.574219 48.175782-39.109375 95.066406-92.941406 64.679688-74.257813 97.472657-140.914063 97.472657-198.113282v-5.667968c0-113.101563-92.015625-205.117188-205.113281-205.117188zm165.089843 210.785156c0 96.664063-124.550781 213.679688-165.089843 249.203125-40.554688-35.535156-165.09375-152.542969-165.09375-249.203125v-5.667968c0-91.035157 74.058593-165.09375 165.09375-165.09375 91.03125 0 165.089843 74.058593 165.089843 165.09375zm-185.101562-14.675781h40.019531v40.023437h-40.019531zm20.519531-114.136719-121.5 110.839844 26.9375 29.527344v36.804687c0 27.585938 22.441406 50.03125 50.027344 50.03125h90.050781c27.585937 0 50.027344-22.445312 50.027344-50.03125v-37.886719l25.953125-28.445312zm45.515625 187.179688h-90.050781c-5.515625 0-10.003906-4.488282-10.003906-10.007813v-73.242187l54.539062-49.753906 55.523438 50.652343v72.34375c0 5.519531-4.488282 10.007813-10.007813 10.007813zm0 0"/>
</symbol>
<symbol id="icon-weibo" viewBox="0, 0, 300, 300"><path d="M196.802 39.964c-8.656 3.787-10.64 12.803-4.328 19.115 3.066 3.066 5.951 3.607 18.574 3.607 17.673 0 29.575 4.688 38.592 15.148 11 12.443 12.263 16.23 12.263 38.952 0 20.197 0 20.558 4.688 23.263 10.82 6.131 18.034-1.443 20.558-21.64 3.246-26.329-12.443-56.986-36.066-71.052-15.509-9.016-42.018-12.623-54.281-7.393zm-88.724 33.542c-20.198 7.213-39.674 21.099-60.592 43.46-49.592 52.658-46.346 102.791 8.295 129.48 56.805 27.771 133.267 18.574 174.924-21.099 31.198-29.575 27.411-66.724-8.115-79.347-6.312-2.164-8.296-3.787-7.394-5.771 3.246-7.934 4.328-17.131 2.525-22.541-5.591-17.132-25.968-21.099-56.264-10.82l-12.083 4.147 1.082-12.082c1.263-14.246-1.803-22.001-10.279-26.329-7.033-3.607-20.558-3.246-32.099.902zm50.133 69.789c26.869 7.394 43.28 23.624 43.28 42.919 0 21.46-19.116 40.756-50.133 51.035-16.591 5.41-47.428 6.492-62.576 2.344-28.673-8.115-44.903-23.984-44.903-44.362 0-11.181 4.869-20.919 15.509-30.837 9.918-9.377 17.492-13.886 32.099-18.755 22.001-7.393 45.625-8.295 66.724-2.344zm-56.806 17.492c-18.213 8.476-27.951 21.46-27.951 37.69 0 14.788 6.492 24.886 20.738 32.46 11 5.951 31.198 5.41 43.461-.901 15.689-8.296 25.968-23.624 25.968-38.592-.181-12.263-11.001-26.87-23.804-32.099-10.279-4.328-27.592-3.607-38.412 1.442zm13.165 33.903c1.262 1.262 2.164 4.328 2.164 7.033 0 9.017-15.148 16.411-21.28 10.279-3.426-3.426-2.524-11.902 1.443-15.869 3.967-3.968 14.246-4.869 17.673-1.443zm85.298-117.758c-8.296 8.296-2.705 18.214 10.459 18.214 11.361 0 16.41 5.771 16.41 18.755 0 8.115.722 10.459 3.968 12.623 9.738 6.853 17.673-.721 17.673-16.771 0-19.656-14.067-34.444-34.084-35.887-9.016-.721-11.18-.18-14.426 3.066z"/>
</symbol>
<symbol id="icon-qrcode" viewBox="0 0 24 24">
  <path fill-rule="evenodd" d="M2,13 L2,11 L22,11 L22,13 L2,13 Z M16,22 L16,20 L20,20 L20,16 L22,16 L22,20 C22,21.1045695 21.1859723,22 20.1818182,22 L16,22 Z M8,22 L3.81818182,22 C2.81402773,22 2,21.1045695 2,20 L2,16 L4,16 L4,20 L8,20 L8,22 Z M16,2 L20.1818182,2 C21.1859723,2 22,2.8954305 22,4 L22,8 L20,8 L20,4 L16,4 L16,2 Z M8,2 L8,4 L4,4 L4,8 L2,8 L2,4 C2,2.8954305 2.81402773,2 3.81818182,2 L8,2 Z"/>
</symbol>
<symbol id="icon-email" viewBox="0 0 488.901 488.901">
<path d="M462.4,60.05H26.6C11.9,60.05,0,71.95,0,86.65v315.6c0,14.7,11.9,26.6,26.6,26.6h435.7c14.7,0,26.6-11.9,26.6-26.6V86.65
	C489,72.05,477,60.05,462.4,60.05z M452.9,392.85H36V96.05h394.6l-183.6,157l-133.5-114.2c-7.6-6.5-18.9-5.6-25.4,2
	c-6.5,7.6-5.6,18.9,2,25.4l145.2,124.2c0.2,0.2,0.4,0.3,0.5,0.4c0.2,0.2,0.4,0.3,0.6,0.5c0.3,0.2,0.7,0.5,1.1,0.7
	c0.1,0.1,0.3,0.2,0.4,0.3c0.5,0.3,1,0.6,1.6,0.8c0.1,0.1,0.3,0.1,0.4,0.2c0.4,0.2,0.8,0.3,1.3,0.5c0.2,0.1,0.3,0.1,0.5,0.2
	c0.4,0.1,0.8,0.2,1.2,0.3c0.2,0,0.4,0.1,0.5,0.1c0.4,0.1,0.9,0.2,1.3,0.2c0.2,0,0.3,0,0.5,0.1c0.6,0.1,1.2,0.1,1.8,0.1
	c0.6,0,1.2,0,1.8-0.1c0.2,0,0.3,0,0.5-0.1c0.4-0.1,0.9-0.1,1.3-0.2c0.2,0,0.4-0.1,0.5-0.1c0.4-0.1,0.8-0.2,1.2-0.3
	c0.2-0.1,0.3-0.1,0.5-0.2c0.4-0.1,0.9-0.3,1.3-0.5c0.1-0.1,0.3-0.1,0.4-0.2c0.5-0.2,1.1-0.5,1.6-0.8c0.1-0.1,0.3-0.2,0.4-0.3
	c0.4-0.2,0.7-0.5,1.1-0.7c0.2-0.1,0.4-0.3,0.6-0.5c0.2-0.1,0.4-0.3,0.5-0.4l194.2-166.1V392.85z"/>
</symbol>
<symbol id="icon-arrow-up" viewBox="0 0 492.002 492.002">
<path d="M484.136,328.473L264.988,109.329c-5.064-5.064-11.816-7.844-19.172-7.844c-7.208,0-13.964,2.78-19.02,7.844    L7.852,328.265C2.788,333.333,0,340.089,0,347.297c0,7.208,2.784,13.968,7.852,19.032l16.124,16.124    c5.064,5.064,11.824,7.86,19.032,7.86s13.964-2.796,19.032-7.86l183.852-183.852l184.056,184.064    c5.064,5.06,11.82,7.852,19.032,7.852c7.208,0,13.96-2.792,19.028-7.852l16.128-16.132    C494.624,356.041,494.624,338.965,484.136,328.473z"/>
</symbol>
<symbol id="icon-feed" viewBox="0 0 512 512">
<path d="M307,439c-17,0-31-14-30-31c3-73-14-129-52-164c-60-56-151-46-152-46c-16,2-31-10-33-26s10-31,26-33c5-1,120-12,200,62
	c51,48,75,117,71,209C336,426,323,439,307,439z M43,368c0-39,31-71,70-71s71,32,71,71c0,38-32,70-71,70C75,438,43,407,43,368z
	 M439,439c-17,0-31-14-30-31c5-119-24-208-86-266C225,51,74,68,73,68c-16,2-31-10-33-26S50,10,66,8c7-1,180-20,298,90
	c76,70,111,175,105,312C468,426,455,439,439,439z"/>
</symbol>
</defs>
</svg>
