<?xml version="1.0" encoding="utf-8"?>
<!-- Generator: Adobe Illustrator 25.4.1, SVG Export Plug-In . SVG Version: 6.00 Build 0)  -->
<svg version="1.1" id="Layer_1" xmlns="http://www.w3.org/2000/svg" xmlns:xlink="http://www.w3.org/1999/xlink" x="0px" y="0px"
	 viewBox="0 0 48 48" style="enable-background:new 0 0 48 48;" xml:space="preserve">
<style type="text/css">
	.st0{fill:#A0A5AB;}
</style>
<path class="st0" d="M28,0h-8C9,0,0,9,0,20v8c0,11,9,20,20,20h8c11,0,20-9,20-20v-8C48,9,39,0,28,0z M11,19.3C11,13.1,17.2,8,24.8,8
	c3.1,0,6.2,0.9,8.6,2.6c0.2,0.1,0.4,0.4,0.4,0.7s-0.1,0.6-0.3,0.8L32,13.6c-0.4,0.3-0.9,0.3-1.3,0.1c-1.7-1-3.8-1.6-6-1.6
	c-5.3,0-9.6,3.3-9.6,7.3s4.3,7.3,9.6,7.3c0.3,0,0.6,0.1,0.8,0.3s0.3,0.4,0.3,0.7v2c0,0.5-0.4,1-1,1C17.2,30.7,11,25.6,11,19.3z
	 M23.2,40c-3.1,0-6.2-0.9-8.6-2.5c-0.3-0.2-0.4-0.4-0.4-0.7s0.1-0.6,0.3-0.8l1.5-1.5c0.3-0.3,0.9-0.4,1.3-0.1c1.7,1.1,3.8,1.6,6,1.6
	c5.3,0,9.6-3.3,9.6-7.3s-4.3-7.3-9.6-7.3c-0.3,0-0.6-0.1-0.8-0.3c-0.2-0.2-0.3-0.4-0.3-0.7v-2c0-0.6,0.5-1,1-1
	c7.6-0.1,13.8,5,13.8,11.3C37,34.9,30.8,40,23.2,40z"/>
</svg>
